<svg width="184" height="62" viewBox="0 0 184 62" fill="none" xmlns="http://www.w3.org/2000/svg">
<rect x="0.895036" y="0.76613" width="182.339" height="59.7581" rx="8.42743" fill="white"/>
<rect x="0.895036" y="0.76613" width="182.339" height="59.7581" rx="8.42743" stroke="black" stroke-width="1.53226"/>
<path d="M37.9823 31.8148C38.0009 30.4052 38.3844 29.0232 39.0971 27.7972C39.8098 26.5713 40.8286 25.5412 42.0586 24.803C41.2772 23.7135 40.2464 22.8168 39.048 22.1843C37.8495 21.5518 36.5166 21.2008 35.1549 21.1592C32.2502 20.8615 29.4343 22.8561 27.9541 22.8561C26.4453 22.8561 24.1664 21.1887 21.7123 21.238C20.1249 21.2881 18.578 21.7388 17.222 22.5461C15.8661 23.3534 14.7475 24.4899 13.9753 25.8447C10.63 31.4994 13.1253 39.8098 16.3298 44.3806C17.9331 46.6188 19.8069 49.1189 22.2587 49.0303C24.658 48.9331 25.5541 47.5366 28.4502 47.5366C31.3194 47.5366 32.1601 49.0303 34.6617 48.9739C37.2363 48.9331 38.8583 46.7258 40.4054 44.4664C41.5574 42.8716 42.4438 41.109 43.0319 39.2439C41.5362 38.6263 40.2598 37.5925 39.3618 36.2713C38.4638 34.9502 37.9841 33.4003 37.9823 31.8148Z" fill="black"/>
<path d="M33.2563 18.1529C34.6601 16.5077 35.3517 14.393 35.1842 12.2581C33.0396 12.478 31.0586 13.4786 29.6359 15.0607C28.9403 15.8336 28.4075 16.7328 28.0681 17.7068C27.7286 18.6808 27.5891 19.7106 27.6576 20.7373C28.7302 20.7481 29.7914 20.5211 30.7612 20.0734C31.731 19.6257 32.5842 18.9691 33.2563 18.1529Z" fill="black"/>
<path d="M68.3668 19.1709H70.8957C73.0809 19.1709 74.144 20.4702 74.144 22.8273C74.144 25.1843 73.0702 26.4998 70.8957 26.4998H68.3668V19.1709ZM69.5856 20.1964V25.4743H70.7615C72.2111 25.4743 72.893 24.5991 72.893 22.8434C72.893 21.0769 72.2058 20.1964 70.7615 20.1964H69.5856ZM77.999 20.7279C79.4809 20.7279 80.5172 21.689 80.5172 23.2837V24.0192C80.5172 25.6675 79.4809 26.5964 77.999 26.5964C76.4957 26.5964 75.4702 25.6783 75.4702 24.0246V23.289C75.4702 21.7373 76.5118 20.7279 77.999 20.7279ZM78.0044 21.689C77.1561 21.689 76.6729 22.3977 76.6729 23.3481V23.9816C76.6729 24.932 77.1239 25.6353 78.0044 25.6353C78.8742 25.6353 79.3198 24.9373 79.3198 23.9816V23.3481C79.3198 22.3977 78.8527 21.689 78.0044 21.689ZM89.2688 20.8246L87.7762 26.4998H86.5628L85.3762 22.3118H85.344L84.1789 26.4998H82.9601L81.4031 20.8246H82.6863L83.599 25.1521H83.6527L84.7964 20.8246H85.9185L87.0943 25.1521H87.148L88.0769 20.8246H89.2688ZM90.45 26.4998V20.8246H91.6205V21.8447H91.6796C91.8245 21.3991 92.238 20.7387 93.387 20.7387C94.5306 20.7387 95.2984 21.3722 95.2984 22.6662V26.4998H94.1064V23.0152C94.1064 22.1508 93.6554 21.7534 92.9843 21.7534C92.1037 21.7534 91.642 22.43 91.642 23.3481V26.4998H90.45ZM97.1024 26.4998V18.7843H98.2943V26.4998H97.1024ZM102.386 20.7279C103.867 20.7279 104.904 21.689 104.904 23.2837V24.0192C104.904 25.6675 103.867 26.5964 102.386 26.5964C100.882 26.5964 99.8568 25.6783 99.8568 24.0246V23.289C99.8568 21.7373 100.898 20.7279 102.386 20.7279ZM102.391 21.689C101.543 21.689 101.059 22.3977 101.059 23.3481V23.9816C101.059 24.932 101.51 25.6353 102.391 25.6353C103.261 25.6353 103.706 24.9373 103.706 23.9816V23.3481C103.706 22.3977 103.239 21.689 102.391 21.689ZM107.991 26.5857C106.89 26.5857 106.133 25.9092 106.133 24.8514C106.133 23.8474 106.831 23.1709 108.141 23.1709H109.575V22.6394C109.575 21.9897 109.161 21.6837 108.506 21.6837C107.862 21.6837 107.572 21.9521 107.481 22.3279H106.348C106.418 21.3776 107.132 20.7387 108.544 20.7387C109.757 20.7387 110.761 21.2434 110.761 22.6555V26.4998H109.629V25.7642H109.575C109.323 26.1991 108.829 26.5857 107.991 26.5857ZM108.361 25.6622C109.038 25.6622 109.575 25.2004 109.575 24.583V23.9709H108.329C107.637 23.9709 107.331 24.3199 107.331 24.7924C107.331 25.383 107.825 25.6622 108.361 25.6622ZM114.434 20.7494C115.234 20.7494 115.846 21.1038 116.066 21.6783H116.125V18.7843H117.317V26.4998H116.157V25.5924H116.098C115.927 26.1669 115.245 26.5749 114.418 26.5749C113.113 26.5749 112.265 25.6461 112.265 24.1481V23.1763C112.265 21.6783 113.129 20.7494 114.434 20.7494ZM114.767 21.7266C113.972 21.7266 113.478 22.3172 113.478 23.3481V23.9709C113.478 25.0071 113.978 25.5977 114.794 25.5977C115.599 25.5977 116.125 25.0125 116.125 24.0461V23.187C116.125 22.3118 115.551 21.7266 114.767 21.7266ZM123.862 20.7279C125.344 20.7279 126.38 21.689 126.38 23.2837V24.0192C126.38 25.6675 125.344 26.5964 123.862 26.5964C122.359 26.5964 121.333 25.6783 121.333 24.0246V23.289C121.333 21.7373 122.375 20.7279 123.862 20.7279ZM123.867 21.689C123.019 21.689 122.536 22.3977 122.536 23.3481V23.9816C122.536 24.932 122.987 25.6353 123.867 25.6353C124.737 25.6353 125.183 24.9373 125.183 23.9816V23.3481C125.183 22.3977 124.716 21.689 123.867 21.689ZM127.916 26.4998V20.8246H129.086V21.8447H129.145C129.29 21.3991 129.704 20.7387 130.853 20.7387C131.996 20.7387 132.764 21.3722 132.764 22.6662V26.4998H131.572V23.0152C131.572 22.1508 131.121 21.7534 130.45 21.7534C129.569 21.7534 129.108 22.43 129.108 23.3481V26.4998H127.916ZM137.376 20.8622V19.4447H138.541V20.8622H139.814V21.7964H138.541V24.8085C138.541 25.4259 138.772 25.5977 139.411 25.5977C139.572 25.5977 139.787 25.587 139.878 25.5763V26.489C139.782 26.5051 139.384 26.5373 139.116 26.5373C137.736 26.5373 137.36 26.0434 137.36 24.9051V21.7964H136.496V20.8622H137.376ZM141.317 26.4998V18.7843H142.504V21.8447H142.563C142.686 21.442 143.148 20.7387 144.286 20.7387C145.392 20.7387 146.182 21.3776 146.182 22.6716V26.4998H144.995V23.0206C144.995 22.1561 144.517 21.7534 143.841 21.7534C142.987 21.7534 142.504 22.4246 142.504 23.3481V26.4998H141.317ZM150.182 26.5964C148.635 26.5964 147.674 25.6461 147.674 24.0461V23.2783C147.674 21.6675 148.727 20.7279 150.112 20.7279C151.535 20.7279 152.539 21.7159 152.539 23.2783V23.9441H148.855V24.2232C148.855 25.0394 149.339 25.6407 150.176 25.6407C150.799 25.6407 151.229 25.3454 151.309 24.991H152.474C152.404 25.6461 151.712 26.5964 150.182 26.5964ZM148.855 23.1655H151.374V23.0904C151.374 22.2367 150.874 21.6675 150.117 21.6675C149.36 21.6675 148.855 22.2367 148.855 23.0904V23.1655Z" fill="black"/>
<path d="M70.0957 45.4998H67.6152L72.6621 30.842H75.3896L80.4259 45.4998H77.8487L76.5494 41.4407H71.4058L70.0957 45.4998ZM74.0366 33.3763H73.94L71.9534 39.5722H76.0017L74.0366 33.3763ZM87.2718 45.6608C85.8006 45.6608 84.6839 44.9628 84.0825 43.9212H83.9966V49.2689H81.6127V34.1494H83.9322V35.8139H84.0181C84.6409 34.7293 85.8006 33.9991 87.3255 33.9991C89.8704 33.9991 91.6852 35.9212 91.6852 39.3145V40.3239C91.6852 43.6957 89.8919 45.6608 87.2718 45.6608ZM86.7241 43.6957C88.2382 43.6957 89.2691 42.4823 89.2691 40.1951V39.4004C89.2691 37.1991 88.3027 35.9427 86.6812 35.9427C85.0168 35.9427 83.9751 37.2957 83.9751 39.3897V40.1951C83.9751 42.3427 85.0275 43.6957 86.7241 43.6957ZM99.3902 45.6608C97.919 45.6608 96.8022 44.9628 96.2009 43.9212H96.115V49.2689H93.7311V34.1494H96.0506V35.8139H96.1365C96.7593 34.7293 97.919 33.9991 99.4439 33.9991C101.989 33.9991 103.804 35.9212 103.804 39.3145V40.3239C103.804 43.6957 102.01 45.6608 99.3902 45.6608ZM98.8425 43.6957C100.357 43.6957 101.387 42.4823 101.387 40.1951V39.4004C101.387 37.1991 100.421 35.9427 98.7996 35.9427C97.1351 35.9427 96.0935 37.2957 96.0935 39.3897V40.1951C96.0935 42.3427 97.1459 43.6957 98.8425 43.6957ZM108.744 41.43H111.128C111.235 42.6971 112.352 43.7816 114.424 43.7816C116.325 43.7816 117.452 42.8904 117.452 41.5051C117.452 40.3883 116.701 39.787 115.133 39.4112L112.728 38.8098C110.838 38.3696 109.141 37.242 109.141 34.8582C109.141 32.0555 111.589 30.5199 114.435 30.5199C117.281 30.5199 119.654 32.0555 119.707 34.7937H117.367C117.259 33.5481 116.303 32.5172 114.403 32.5172C112.728 32.5172 111.589 33.3118 111.589 34.6756C111.589 35.6313 112.255 36.3186 113.619 36.63L116.013 37.2206C118.215 37.7575 119.89 38.7991 119.89 41.2904C119.89 44.1682 117.56 45.7897 114.242 45.7897C110.161 45.7897 108.797 43.4058 108.744 41.43ZM122.795 34.1494V31.3897H125.136V34.1494H127.348V36.0608H125.136V42.1172C125.136 43.3521 125.598 43.6957 126.876 43.6957C127.08 43.6957 127.273 43.6957 127.412 43.6743V45.4998C127.219 45.532 126.768 45.5749 126.285 45.5749C123.525 45.5749 122.763 44.587 122.763 42.3105V36.0608H121.195V34.1494H122.795ZM133.786 33.9561C137.05 33.9561 138.822 36.2541 138.822 39.3467V40.2595C138.822 43.4595 137.061 45.693 133.786 45.693C130.511 45.693 128.728 43.4595 128.728 40.2595V39.3467C128.728 36.2649 130.521 33.9561 133.786 33.9561ZM133.786 35.8675C132.014 35.8675 131.133 37.3172 131.133 39.379V40.2488C131.133 42.2783 132.003 43.7709 133.786 43.7709C135.568 43.7709 136.427 42.289 136.427 40.2488V39.379C136.427 37.3065 135.558 35.8675 133.786 35.8675ZM140.836 45.4998V34.1494H143.22V35.642H143.306C143.595 34.9333 144.444 33.9884 146.022 33.9884C146.334 33.9884 146.602 34.0098 146.828 34.0528V36.1575C146.624 36.1038 146.205 36.0716 145.808 36.0716C143.896 36.0716 143.252 37.2528 143.252 38.7776V45.4998H140.836ZM152.611 45.693C149.572 45.693 147.639 43.685 147.639 40.3239V39.1749C147.639 36.0071 149.529 33.9561 152.514 33.9561C155.542 33.9561 157.368 36.0823 157.368 39.2823V40.3669H149.99V40.6353C149.99 42.5467 151.021 43.8139 152.643 43.8139C153.856 43.8139 154.683 43.2125 154.973 42.2353H157.239C156.895 44.0716 155.413 45.693 152.611 45.693ZM149.99 38.7024H155.037V38.681C155.037 37.0702 154.039 35.8031 152.525 35.8031C150.989 35.8031 149.99 37.0702 149.99 38.681V38.7024Z" fill="black"/>
</svg>
