<svg width="184" height="62" viewBox="0 0 184 62" fill="none" xmlns="http://www.w3.org/2000/svg">
<rect x="0.76613" y="0.76613" width="182.339" height="59.7581" rx="8.42743" fill="white"/>
<rect x="0.76613" y="0.76613" width="182.339" height="59.7581" rx="8.42743" stroke="black" stroke-width="1.53226"/>
<path d="M27.2827 29.8203L12.3965 45.9768C12.3979 45.9796 12.3979 45.9839 12.3993 45.9868C12.8565 47.7411 14.4224 49.0322 16.282 49.0322C17.0258 49.0322 17.7235 48.8263 18.3219 48.466L18.3694 48.4374L35.125 38.5505L27.2827 29.8203Z" fill="#EA4335"/>
<path d="M42.3413 27.0691L42.3273 27.0591L35.0932 22.7712L26.9434 30.1875L35.1226 38.5488L42.3175 34.3038C43.5787 33.6061 44.4358 32.2464 44.4358 30.6793C44.4358 29.1209 43.5913 27.7683 42.3413 27.0691Z" fill="#FBBC04"/>
<path d="M12.3948 15.3123C12.3053 15.6497 12.2578 16.0043 12.2578 16.3703V44.9202C12.2578 45.2862 12.3054 45.6408 12.3962 45.9768L27.7928 30.2335L12.3948 15.3123Z" fill="#4285F4"/>
<path d="M27.3932 30.6453L35.097 22.7686L18.361 12.8459C17.7528 12.4728 17.0426 12.2583 16.2834 12.2583C14.4238 12.2583 12.8551 13.5522 12.3979 15.308C12.3979 15.3094 12.3965 15.3109 12.3965 15.3123L27.3932 30.6453Z" fill="#34A853"/>
<path d="M75.9481 15.6417C75.9481 16.8635 75.5856 17.8369 74.8607 18.5618C74.0462 19.4252 72.9751 19.8569 71.6474 19.8569C70.3768 19.8569 69.3016 19.417 68.422 18.5373C67.5423 17.6577 67.1024 16.5744 67.1024 15.2874C67.1024 14.0005 67.5423 12.9172 68.422 12.0375C69.3016 11.1578 70.3768 10.718 71.6474 10.718C72.2909 10.718 72.8977 10.832 73.4679 11.0601C74.0381 11.2882 74.5064 11.6099 74.8729 12.0253L74.0666 12.8317C73.7978 12.5059 73.4475 12.2534 73.0158 12.0742C72.5923 11.8868 72.1362 11.7932 71.6474 11.7932C70.6945 11.7932 69.8881 12.123 69.2283 12.7828C68.5767 13.4507 68.2509 14.2856 68.2509 15.2874C68.2509 16.2893 68.5767 17.1242 69.2283 17.7921C69.8881 18.4518 70.6945 18.7817 71.6474 18.7817C72.519 18.7817 73.2439 18.5373 73.8222 18.0486C74.4005 17.5599 74.7345 16.8879 74.8241 16.0327H71.6474V14.982H75.887C75.9277 15.21 75.9481 15.43 75.9481 15.6417ZM82.4208 10.9135V11.9886H78.4378V14.7621H82.0299V15.8128H78.4378V18.5862H82.4208V19.6614H77.3138V10.9135H82.4208ZM86.9169 11.9886V19.6614H85.7928V11.9886H83.3493V10.9135H89.3604V11.9886H86.9169ZM94.3424 19.6614H93.2183V10.9135H94.3424V19.6614ZM99.0869 11.9886V19.6614H97.9628V11.9886H95.5193V10.9135H101.53V11.9886H99.0869ZM113.714 15.2874C113.714 16.5825 113.283 17.6658 112.419 18.5373C111.548 19.417 110.481 19.8569 109.218 19.8569C107.948 19.8569 106.881 19.417 106.017 18.5373C105.154 17.6658 104.722 16.5825 104.722 15.2874C104.722 13.9923 105.154 12.909 106.017 12.0375C106.881 11.1578 107.948 10.718 109.218 10.718C110.489 10.718 111.556 11.1619 112.419 12.0497C113.283 12.9213 113.714 14.0005 113.714 15.2874ZM105.871 15.2874C105.871 16.2974 106.188 17.1323 106.824 17.7921C107.467 18.4518 108.265 18.7817 109.218 18.7817C110.171 18.7817 110.965 18.4518 111.601 17.7921C112.244 17.1404 112.566 16.3056 112.566 15.2874C112.566 14.2693 112.244 13.4344 111.601 12.7828C110.965 12.123 110.171 11.7932 109.218 11.7932C108.265 11.7932 107.467 12.123 106.824 12.7828C106.188 13.4425 105.871 14.2774 105.871 15.2874ZM116.165 19.6614H115.041V10.9135H116.409L120.661 17.7188H120.71L120.661 16.0327V10.9135H121.785V19.6614H120.612L116.165 12.5262H116.116L116.165 14.2123V19.6614Z" fill="black"/>
<path d="M143.295 41.7406H145.791V24.8681H143.295V41.7406ZM165.774 30.9458L162.913 38.2611H162.827L159.858 30.9458H157.17L161.622 41.1697L159.085 46.8573H161.687L168.549 30.9458H165.774ZM151.621 39.824C150.802 39.824 149.663 39.4124 149.663 38.3907C149.663 37.0896 151.082 36.5902 152.308 36.5902C153.405 36.5902 153.922 36.8291 154.589 37.1544C154.395 38.7173 153.061 39.824 151.621 39.824ZM151.922 30.5773C150.115 30.5773 148.242 31.3804 147.469 33.1606L149.684 34.0933C150.157 33.1606 151.039 32.8556 151.964 32.8556C153.255 32.8556 154.567 33.6371 154.589 35.0272V35.2C154.136 34.9395 153.169 34.5494 151.986 34.5494C149.598 34.5494 147.167 35.8735 147.167 38.3475C147.167 40.6055 149.125 42.0605 151.318 42.0605C152.997 42.0605 153.922 41.3006 154.503 40.4098H154.589V41.7123H156.997V35.2432C156.997 32.2482 154.783 30.5773 151.922 30.5773ZM136.498 33H132.948V27.2166H136.498C138.363 27.2166 139.423 28.7755 139.423 30.1076C139.423 31.4155 138.363 33 136.498 33ZM136.433 24.8681H130.454V41.7406H132.948V35.3485H136.433C139.199 35.3485 141.919 33.3266 141.919 30.1076C141.919 26.8886 139.199 24.8681 136.433 24.8681ZM103.824 39.8267C102.1 39.8267 100.657 38.3704 100.657 36.3702C100.657 34.3483 102.1 32.8691 103.824 32.8691C105.527 32.8691 106.862 34.3483 106.862 36.3702C106.862 38.3704 105.527 39.8267 103.824 39.8267ZM106.69 31.8906H106.603C106.043 31.2171 104.966 30.6084 103.609 30.6084C100.764 30.6084 98.1571 33.1296 98.1571 36.3702C98.1571 39.5878 100.764 42.0888 103.609 42.0888C104.966 42.0888 106.043 41.4801 106.603 40.7837H106.69V41.611C106.69 43.807 105.527 44.9812 103.652 44.9812C102.121 44.9812 101.173 43.8718 100.785 42.9364L98.6092 43.8502C99.2338 45.3726 100.894 47.2419 103.652 47.2419C106.582 47.2419 109.06 45.5022 109.06 41.2628V30.9552H106.69V31.8906ZM110.784 41.7406H113.284V24.8668H110.784V41.7406ZM116.968 36.1745C116.903 33.9569 118.67 32.8259 119.941 32.8259C120.933 32.8259 121.773 33.3253 122.053 34.0433L116.968 36.1745ZM124.725 34.2606C124.252 32.9784 122.807 30.6084 119.855 30.6084C116.925 30.6084 114.491 32.9339 114.491 36.3486C114.491 39.5662 116.903 42.0888 120.135 42.0888C122.743 42.0888 124.252 40.48 124.876 39.5447L122.937 38.2395C122.291 39.1964 121.407 39.8267 120.135 39.8267C118.864 39.8267 117.959 39.2396 117.377 38.0883L124.983 34.9125L124.725 34.2606ZM64.126 32.3697V34.8045H69.8999C69.7274 36.1745 69.2753 37.1746 68.5865 37.8697C67.7452 38.7186 66.4305 39.654 64.126 39.654C60.5696 39.654 57.7903 36.7616 57.7903 33.1741C57.7903 29.5853 60.5696 26.6942 64.126 26.6942C66.0439 26.6942 67.4443 27.4555 68.4782 28.434L70.1808 26.7158C68.7363 25.3243 66.8197 24.2581 64.126 24.2581C59.2562 24.2581 55.1621 28.2599 55.1621 33.1741C55.1621 38.0883 59.2562 42.0888 64.126 42.0888C66.7541 42.0888 68.7363 41.2183 70.2878 39.5878C71.8834 37.979 72.3783 35.7183 72.3783 33.8908C72.3783 33.3253 72.3355 32.8043 72.2486 32.3697H64.126ZM78.944 39.8267C77.22 39.8267 75.7327 38.392 75.7327 36.3486C75.7327 34.2822 77.22 32.8691 78.944 32.8691C80.6667 32.8691 82.154 34.2822 82.154 36.3486C82.154 38.392 80.6667 39.8267 78.944 39.8267ZM78.944 30.6084C75.7969 30.6084 73.233 33.0216 73.233 36.3486C73.233 39.654 75.7969 42.0888 78.944 42.0888C82.0898 42.0888 84.6538 39.654 84.6538 36.3486C84.6538 33.0216 82.0898 30.6084 78.944 30.6084ZM91.4001 39.8267C89.6761 39.8267 88.1888 38.392 88.1888 36.3486C88.1888 34.2822 89.6761 32.8691 91.4001 32.8691C93.1241 32.8691 94.6101 34.2822 94.6101 36.3486C94.6101 38.392 93.1241 39.8267 91.4001 39.8267ZM91.4001 30.6084C88.2543 30.6084 85.6904 33.0216 85.6904 36.3486C85.6904 39.654 88.2543 42.0888 91.4001 42.0888C94.5459 42.0888 97.1099 39.654 97.1099 36.3486C97.1099 33.0216 94.5459 30.6084 91.4001 30.6084Z" fill="black"/>
</svg>
