<svg width="76" height="76" viewBox="0 0 76 76" fill="none" xmlns="http://www.w3.org/2000/svg">
<g filter="url(#filter0_f_279_485)">
<circle cx="38" cy="38" r="16" fill="#1FB4AB" fill-opacity="0.28"/>
</g>
<path d="M45.0199 38.0438C44.6256 41.328 42.4745 42.6403 41.5454 43.593C40.615 44.5484 40.7817 44.7386 40.8442 46.1398C40.8546 46.3132 40.8294 46.4868 40.7702 46.6501C40.7109 46.8134 40.6189 46.9627 40.4997 47.0891C40.3805 47.2154 40.2368 47.316 40.0772 47.3846C39.9177 47.4533 39.7458 47.4886 39.5721 47.4882H35.881C35.7074 47.4879 35.5358 47.4523 35.3764 47.3834C35.2171 47.3146 35.0735 47.214 34.9543 47.0878C34.8352 46.9617 34.743 46.8125 34.6833 46.6495C34.6237 46.4865 34.5979 46.3131 34.6076 46.1398C34.6076 44.765 34.7353 44.4456 33.9077 43.593C32.8523 42.5376 30.3693 41.0475 30.3693 36.9495C30.3629 35.9316 30.5675 34.9234 30.9702 33.9885C31.3728 33.0536 31.9648 32.2122 32.7087 31.5174C33.4527 30.8226 34.3325 30.2895 35.2927 29.9516C36.2529 29.6138 37.2727 29.4785 38.2878 29.5543C39.3029 29.6301 40.2913 29.9154 41.1907 30.3922C42.0901 30.8689 42.8809 31.5268 43.5134 32.3244C44.1459 33.122 44.6063 34.042 44.8656 35.0263C45.1249 36.0107 45.1774 37.0381 45.0199 38.0438Z" stroke="#1FB4AB" stroke-width="2.08303" stroke-linecap="round" stroke-linejoin="round"/>
<path d="M35.5888 47.4119V49.5116C35.5888 50.0851 35.9081 50.5559 36.3011 50.5559H39.1521C39.5479 50.5559 39.8659 50.0837 39.8659 49.5116V47.4119M36.6442 32.7751C35.8242 32.7755 35.0379 33.1015 34.4582 33.6814C33.8786 34.2614 33.5529 35.0478 33.5529 35.8677M47.9092 37.23H50.4561M45.3457 28.8812L47.1524 27.0746M46.7344 44.3068L48.5411 46.1121M37.7273 24V26.0594M28.3398 27.0732L30.134 28.8812M26.9511 46.1121L28.7453 44.3068M27.5455 37.23H25" stroke="#1FB4AB" stroke-width="2.08303" stroke-linecap="round" stroke-linejoin="round"/>
<defs>
<filter id="filter0_f_279_485" x="0.378378" y="0.378378" width="75.2432" height="75.2432" filterUnits="userSpaceOnUse" color-interpolation-filters="sRGB">
<feFlood flood-opacity="0" result="BackgroundImageFix"/>
<feBlend mode="normal" in="SourceGraphic" in2="BackgroundImageFix" result="shape"/>
<feGaussianBlur stdDeviation="10.8108" result="effect1_foregroundBlur_279_485"/>
</filter>
</defs>
</svg>
