<svg width="76" height="76" viewBox="0 0 76 76" fill="none" xmlns="http://www.w3.org/2000/svg">
<g filter="url(#filter0_f_279_500)">
<circle cx="38" cy="38" r="16" fill="#1FB4AB" fill-opacity="0.28"/>
</g>
<g clip-path="url(#clip0_279_500)">
<g clip-path="url(#clip1_279_500)">
<g clip-path="url(#clip2_279_500)">
<path opacity="0.2" d="M41.8899 36.5001H47.8C47.9584 36.5001 48.1131 36.5486 48.2431 36.6392C48.3731 36.7297 48.4722 36.858 48.5271 37.0066C48.582 37.1552 48.59 37.3171 48.5501 37.4704C48.5101 37.6237 48.4242 37.7611 48.3038 37.8641L40.6189 44.4376L32.8317 51.7893C32.2272 52.3597 31.2708 51.7071 31.5808 50.9368L36.1347 39.6001H32.3C32.1717 39.6002 32.0454 39.5684 31.9323 39.5077C31.8193 39.4469 31.7232 39.3591 31.6525 39.252C31.5818 39.1449 31.5388 39.0219 31.5274 38.8941C31.516 38.7663 31.5365 38.6377 31.587 38.5197L36.237 27.6697C36.2968 27.5302 36.3963 27.4114 36.523 27.3279C36.6498 27.2444 36.7982 27.1999 36.95 27.2001H44.7C44.8283 27.2 44.9547 27.2317 45.0677 27.2925C45.1807 27.3532 45.2768 27.4411 45.3475 27.5482C45.4182 27.6553 45.4612 27.7782 45.4726 27.906C45.484 28.0338 45.4636 28.1625 45.413 28.2804L41.8899 36.5001Z" fill="#1FB4AB"/>
<path fill-rule="evenodd" clip-rule="evenodd" d="M46.2502 34.175H40.3401L43.8632 25.9554C43.9138 25.8374 43.9342 25.7088 43.9228 25.581C43.9114 25.4532 43.8684 25.3302 43.7977 25.2231C43.727 25.116 43.6309 25.0281 43.5179 24.9674C43.4048 24.9066 43.2785 24.8749 43.1502 24.875H35.4002C35.2484 24.8749 35.0999 24.9193 34.9732 25.0028C34.8464 25.0863 34.747 25.2052 34.6872 25.3447L30.0372 36.1947C29.9866 36.3126 29.9662 36.4412 29.9776 36.569C29.989 36.6968 30.032 36.8198 30.1027 36.9269C30.1734 37.034 30.2695 37.1219 30.3825 37.1826C30.4956 37.2434 30.6219 37.2751 30.7502 37.275H34.5849L30.031 48.6117C29.721 49.382 30.6774 50.0346 31.2819 49.4642L39.0691 42.1126L46.754 35.539C46.8744 35.436 46.9603 35.2986 47.0002 35.1453C47.0402 34.992 47.0322 34.8301 46.9773 34.6815C46.9224 34.5329 46.8233 34.4047 46.6933 34.3141C46.5633 34.2235 46.4086 34.175 46.2502 34.175ZM39.1652 35.725H44.1515L38.0321 40.9609L32.7854 45.9132L36.4511 36.7883C36.4982 36.6707 36.5158 36.5434 36.5023 36.4174C36.4888 36.2915 36.4446 36.1707 36.3737 36.0658C36.3027 35.9609 36.2071 35.8749 36.0952 35.8155C35.9833 35.7561 35.8586 35.725 35.7319 35.725H31.9251L35.9117 26.425H41.9753L38.4522 34.6447C38.4016 34.7626 38.3811 34.8912 38.3925 35.019C38.404 35.1468 38.447 35.2698 38.5176 35.3769C38.5883 35.484 38.6845 35.5719 38.7975 35.6326C38.9105 35.6934 39.0368 35.7251 39.1652 35.725Z" fill="#1FB4AB"/>
</g>
</g>
</g>
<defs>
<filter id="filter0_f_279_500" x="0.378378" y="0.378378" width="75.2432" height="75.2432" filterUnits="userSpaceOnUse" color-interpolation-filters="sRGB">
<feFlood flood-opacity="0" result="BackgroundImageFix"/>
<feBlend mode="normal" in="SourceGraphic" in2="BackgroundImageFix" result="shape"/>
<feGaussianBlur stdDeviation="10.8108" result="effect1_foregroundBlur_279_500"/>
</filter>
<clipPath id="clip0_279_500">
<rect width="32" height="32" fill="white" transform="translate(22 21)"/>
</clipPath>
<clipPath id="clip1_279_500">
<rect width="30" height="30" fill="white" transform="translate(21 24)"/>
</clipPath>
<clipPath id="clip2_279_500">
<rect width="31" height="31" fill="white" transform="translate(23 21)"/>
</clipPath>
</defs>
</svg>
