<svg width="190" height="44" viewBox="0 0 190 44" fill="none" xmlns="http://www.w3.org/2000/svg">
<path d="M51.8123 35.7921C52.1938 36.2371 52.7104 36.4596 53.362 36.4596C54.0137 36.4596 54.5302 36.2371 54.9117 35.7921C55.2932 35.347 55.4839 34.743 55.4839 33.9801V29.3668H56.8905V34.0397C56.8905 35.2397 56.5607 36.1633 55.9011 36.811C55.2415 37.4587 54.3951 37.7822 53.362 37.7822C52.3289 37.7822 51.4825 37.4587 50.8229 36.811C50.1633 36.1633 49.8335 35.2392 49.8335 34.0397V29.3668H51.2401V33.9801C51.2401 34.743 51.4309 35.347 51.8123 35.7921Z" fill="white"/>
<path d="M71.3021 29.3668H72.7087V37.6994H71.1829L66.4623 31.6198V37.6994H65.0557V29.3668H66.4623L71.3021 35.5894V29.3668Z" fill="white"/>
<path d="M80.9814 29.3668H82.3881V37.6994H80.9814V29.3668Z" fill="white"/>
<path d="M94.4637 37.6994H92.8902L89.5405 29.3668H91.1141L93.677 35.5894L96.2399 29.3668H97.8134L94.4637 37.6994Z" fill="white"/>
<path d="M110.819 29.3668V30.69H106.372V32.8953H110.366V34.147H106.372V36.3762H110.962V37.6994H104.966V29.3668H110.819Z" fill="white"/>
<path d="M125.374 32.0728C125.374 33.4477 124.774 34.3139 123.574 34.6715L125.755 37.6994H123.968L121.977 34.898H120.129V37.6994H118.722V29.3668H121.822C123.093 29.3668 124.003 29.5814 124.552 30.0105C125.1 30.4397 125.374 31.1271 125.374 32.0728ZM123.502 33.2529C123.788 33.0066 123.931 32.6115 123.931 32.0671C123.931 31.5228 123.784 31.1492 123.491 30.9466C123.196 30.7439 122.672 30.6423 121.917 30.6423H120.13V33.6225H121.882C122.676 33.6225 123.216 33.4993 123.502 33.2529Z" fill="white"/>
<path d="M135.883 30.4635C135.473 30.4635 135.138 30.5469 134.876 30.7138C134.613 30.8807 134.483 31.1333 134.483 31.4705C134.483 31.8083 134.613 32.0665 134.876 32.2453C135.138 32.4241 135.696 32.6166 136.55 32.8238C137.404 33.031 138.049 33.3205 138.481 33.694C138.914 34.0675 139.131 34.6175 139.131 35.3453C139.131 36.0724 138.857 36.6622 138.309 37.1158C137.76 37.5688 137.041 37.7953 136.151 37.7953C134.848 37.7953 133.691 37.3462 132.682 36.4482L133.565 35.3873C134.407 36.119 135.281 36.484 136.187 36.484C136.64 36.484 137 36.3869 137.266 36.1916C137.532 35.9969 137.665 35.7387 137.665 35.4168C137.665 35.0949 137.539 34.8446 137.29 34.6658C137.039 34.487 136.608 34.3241 135.997 34.1771C135.384 34.03 134.92 33.8949 134.602 33.7717C134.283 33.6486 134.001 33.4879 133.756 33.2887C133.263 32.9152 133.016 32.343 133.016 31.5721C133.016 30.8012 133.296 30.2069 133.857 29.7897C134.416 29.3725 135.11 29.1636 135.936 29.1636C136.469 29.1636 136.997 29.251 137.522 29.4258C138.046 29.6007 138.499 29.8476 138.881 30.1649L138.13 31.2258C137.884 31.0033 137.55 30.8205 137.129 30.6775C136.707 30.5344 136.291 30.4635 135.883 30.4635Z" fill="white"/>
<path d="M146.832 29.3668H148.239V37.6994H146.832V29.3668Z" fill="white"/>
<path d="M159.657 30.6542V37.6994H158.25V30.6542H155.724V29.3668H162.185V30.6542H159.657Z" fill="white"/>
<path d="M172.949 37.6994H171.519V34.4093L168.419 29.3668H169.957L172.234 33.1576L174.511 29.3668H176.049L172.949 34.4093V37.6994Z" fill="white"/>
<path d="M51.5641 13.631V17.6046H56.9V20.1249H51.5641V24.3256H57.5812V26.914H48.3853V11.0425H57.5812V13.631H51.5641Z" fill="#1FB4AB"/>
<path d="M70.1823 23.8941H63.8701L62.8256 26.914H59.4878L65.187 11.0425H68.8881L74.5873 26.914H71.2268L70.1823 23.8941ZM69.3195 21.3511L67.0262 14.7209L64.7329 21.3511H69.3195Z" fill="#1FB4AB"/>
<path d="M79.208 26.5053C78.3225 26.1273 77.622 25.5823 77.1077 24.8705C76.5928 24.1592 76.3277 23.3191 76.313 22.3501H79.7189C79.7643 23.0012 79.9948 23.5161 80.4114 23.8942C80.8281 24.2722 81.3991 24.4618 82.1257 24.4618C82.8676 24.4618 83.4501 24.2841 83.8741 23.9282C84.2981 23.5723 84.5099 23.1074 84.5099 22.5318C84.5099 22.0629 84.3657 21.6769 84.0784 21.3738C83.7906 21.0712 83.4313 20.8328 82.9999 20.6585C82.5685 20.4848 81.9742 20.2918 81.2175 20.0795C80.1878 19.777 79.3516 19.4778 78.7085 19.1827C78.0653 18.8875 77.513 18.4413 77.0509 17.843C76.5894 17.2453 76.3584 16.4466 76.3584 15.4475C76.3584 14.5092 76.5928 13.6918 77.0623 12.9953C77.5312 12.2993 78.1896 11.7657 79.0377 11.3945C79.8852 11.0238 80.8542 10.8382 81.9441 10.8382C83.5789 10.8382 84.9072 11.2355 85.929 12.0303C86.9508 12.825 87.5144 13.9342 87.6206 15.3567H84.1239C84.0932 14.8117 83.8627 14.3616 83.4313 14.0057C82.9999 13.6503 82.4283 13.4721 81.717 13.4721C81.096 13.4721 80.6004 13.631 80.2298 13.9489C79.8585 14.2668 79.6735 14.7289 79.6735 15.334C79.6735 15.758 79.8131 16.11 80.0935 16.3898C80.3734 16.6702 80.7214 16.8973 81.138 17.071C81.5541 17.2453 82.1405 17.4456 82.8977 17.6727C83.9269 17.9758 84.767 18.2784 85.4181 18.5809C86.0686 18.8841 86.6289 19.3382 87.0983 19.9433C87.5672 20.549 87.8022 21.3437 87.8022 22.3274C87.8022 23.1755 87.5825 23.9623 87.1438 24.6889C86.7044 25.4155 86.0612 25.9945 85.2137 26.4259C84.3657 26.8573 83.3592 27.073 82.1938 27.073C81.0886 27.073 80.0935 26.884 79.208 26.5053Z" fill="#1FB4AB"/>
<path d="M103.152 11.0652L97.7931 21.3965V26.914H94.6142V21.3965L89.2329 11.0652H92.8204L96.2263 18.3085L99.6096 11.0652H103.152Z" fill="#1FB4AB"/>
<path d="M127.674 11.0652V26.914H124.494V16.6055L120.249 26.914H117.842L113.573 16.6055V26.914H110.394V11.0652H114.004L119.045 22.8497L124.086 11.0652H127.674Z" fill="#1FB4AB"/>
<path d="M134.076 26.0285C132.834 25.3326 131.851 24.3676 131.125 23.1335C130.398 21.9 130.035 20.5036 130.035 18.9442C130.035 17.4002 130.398 16.0118 131.125 14.7777C131.851 13.5442 132.835 12.5792 134.076 11.8827C135.317 11.1867 136.68 10.8382 138.163 10.8382C139.662 10.8382 141.028 11.1867 142.262 11.8827C143.495 12.5792 144.472 13.5442 145.191 14.7777C145.91 16.0118 146.269 17.4002 146.269 18.9442C146.269 20.5036 145.909 21.9 145.191 23.1335C144.471 24.3676 143.491 25.3326 142.25 26.0285C141.008 26.725 139.646 27.073 138.163 27.073C136.68 27.073 135.317 26.725 134.076 26.0285ZM140.684 23.5876C141.41 23.1562 141.978 22.5397 142.387 21.7371C142.795 20.935 143 20.004 143 18.9442C143 17.885 142.795 16.9575 142.387 16.1627C141.978 15.368 141.41 14.7589 140.684 14.3349C139.957 13.9114 139.117 13.6991 138.164 13.6991C137.21 13.6991 136.366 13.9114 135.632 14.3349C134.898 14.7589 134.326 15.368 133.917 16.1627C133.509 16.9575 133.304 17.885 133.304 18.9442C133.304 20.004 133.509 20.935 133.917 21.7371C134.326 22.5397 134.898 23.1562 135.632 23.5876C136.366 24.019 137.21 24.2347 138.164 24.2347C139.117 24.2347 139.957 24.019 140.684 23.5876Z" fill="#1FB4AB"/>
<path d="M162.185 26.914H159.007L151.809 16.0379V26.914H148.629V11.0425H151.809L159.007 21.9414V11.0425H162.185V26.914Z" fill="#1FB4AB"/>
<path d="M168.498 13.631V17.6046H173.834V20.1249H168.498V24.3256H174.515V26.914H165.319V11.0425H174.515V13.631H168.498Z" fill="#1FB4AB"/>
<path d="M190 11.0652L184.642 21.3965V26.914H181.463V21.3965L176.082 11.0652H179.669L183.075 18.3085L186.458 11.0652H190Z" fill="#1FB4AB"/>
<path d="M22.408 32.4174L40.2379 19.0884V35.3124L36.4959 37.7408L36.5947 43.0075L44.5089 36.7236V10.5549L22.408 26.8777L0 10.5549V36.8223L7.93121 43.0075V37.642L4.271 35.3385V19.1616L22.408 32.4174Z" fill="#1FB4AB"/>
<path d="M36.6549 26.7181L32.3021 30.0031V31.3933L22.2025 37.8469L12.2067 31.4206V30.1025L7.854 26.8169V33.3137L22.3308 43.1755L36.6549 33.2149V26.7181Z" fill="#1FB4AB"/>
<path d="M7.854 11.3269L23.0892 0L36.6549 11.1288L22.3915 21.846L14.4467 16.0668L17.6925 13.581L22.0617 16.908L30.0622 11.1288L22.7906 5.24281L14.9746 11.0879L11.1907 13.8495L7.854 11.3269Z" fill="#1FB4AB"/>
</svg>
