<svg width="76" height="76" viewBox="0 0 76 76" fill="none" xmlns="http://www.w3.org/2000/svg">
<g filter="url(#filter0_f_279_469)">
<circle cx="38" cy="38" r="16" fill="#1FB4AB" fill-opacity="0.28"/>
</g>
<g clip-path="url(#clip0_279_469)">
<path d="M34.5697 41.7125C34.7459 41.5369 34.8452 41.2986 34.8456 41.0499C34.8461 40.8012 34.7477 40.5624 34.5722 40.3862C34.3967 40.21 34.1583 40.1108 33.9096 40.1103C33.6609 40.1098 33.4222 40.2082 33.246 40.3837L34.5697 41.7125ZM33.3997 33.2775C33.6086 33.4029 33.8581 33.442 34.0953 33.3866C34.3325 33.3312 34.5389 33.1857 34.6707 32.9808C34.8024 32.7759 34.8493 32.5277 34.8013 32.2889C34.7533 32.0501 34.6142 31.8393 34.4135 31.7012L33.3997 33.2775ZM36.6247 47.125L35.9622 47.7875L36.0072 47.83L36.6247 47.125ZM43.2797 40.54C43.2128 40.4366 43.1262 40.3473 43.0248 40.2774C42.9235 40.2075 42.8093 40.1582 42.6889 40.1323C42.4457 40.0802 42.1917 40.1268 41.9828 40.2619C41.774 40.397 41.6273 40.6095 41.5752 40.8527C41.523 41.0959 41.5696 41.3499 41.7047 41.5587L43.2797 40.54ZM37.2785 47.6975L37.941 47.035L37.9185 47.0125L37.896 46.9937L37.2785 47.6975ZM45.7047 36.5212L38.396 43.8075L39.721 45.135L47.0285 37.8475L45.7047 36.5212ZM32.8535 43.8075L31.136 42.095L29.8122 43.425L31.5297 45.1375L32.8535 43.8075ZM31.136 36.5775L38.446 29.29L37.121 27.9625L29.8122 35.25L31.136 36.5775ZM42.9335 27.4375H43.6447V25.5625H42.9322L42.9335 27.4375ZM47.5622 31.3412V32.05H49.4372V31.3412H47.5622ZM43.6447 27.4375C44.8147 27.4375 45.5997 27.44 46.1835 27.5175C46.741 27.5925 46.9747 27.7212 47.1272 27.8725L48.451 26.545C47.8922 25.9875 47.1972 25.7625 46.4322 25.66C45.6947 25.56 44.7622 25.5625 43.6447 25.5625V27.4375ZM49.4372 31.3412C49.4372 30.2262 49.4397 29.2962 49.3397 28.56C49.2372 27.7962 49.0097 27.1025 48.451 26.545L47.1247 27.8725C47.2772 28.0237 47.406 28.2562 47.481 28.81C47.5585 29.3925 47.5622 30.1725 47.5622 31.3412H49.4372ZM31.1372 42.0962C30.3085 41.2712 29.756 40.7162 29.3985 40.2487C29.0572 39.8037 28.9847 39.5487 28.9847 39.3362H27.1097C27.1097 40.1262 27.441 40.7762 27.9097 41.3887C28.361 41.9787 29.0222 42.635 29.8122 43.4237L31.1372 42.0962ZM31.5285 45.135C32.3185 45.9225 32.9785 46.5825 33.5697 47.0325C34.1835 47.5 34.8347 47.8287 35.6247 47.8287V45.9537C35.4085 45.9537 35.1522 45.88 34.7047 45.5412C34.2372 45.1837 33.681 44.6325 32.8535 43.8075L31.5285 45.135ZM47.0285 37.8475C48.0272 36.8537 48.7222 36.1825 49.0885 35.3025L47.3572 34.5837C47.1685 35.0387 46.811 35.4175 45.7047 36.5212L47.0285 37.8475ZM47.5622 32.05C47.5622 33.6112 47.546 34.1287 47.3572 34.5837L49.0885 35.3025C49.4535 34.4225 49.4372 33.4575 49.4372 32.05H47.5622ZM38.4447 29.2912C39.551 28.1875 39.9322 27.8312 40.3885 27.6425L39.6735 25.91C38.7922 26.2737 38.1197 26.9675 37.121 27.9625L38.4447 29.2912ZM42.9322 25.5625C41.5197 25.5625 40.5547 25.5462 39.6735 25.91L40.3885 27.6425C40.846 27.455 41.3685 27.4375 42.9335 27.4375L42.9322 25.5625ZM31.9947 44.2787L34.5697 41.7125L33.246 40.3837L30.671 42.9512L31.9947 44.2787ZM34.4135 31.7012L33.6272 31.195L32.6122 32.7712L33.3997 33.2775L34.4135 31.7012ZM33.6272 31.195C32.851 30.695 32.2235 30.29 31.6847 30C31.1322 29.7025 30.616 29.4912 30.0447 29.4075L29.771 31.2625C30.046 31.3025 30.346 31.4087 30.7947 31.65C31.2547 31.8987 31.8122 32.2562 32.6122 32.7712L33.6272 31.195ZM24.4435 34.6925C25.1414 33.9868 25.8541 33.2959 26.581 32.62C26.8746 32.3483 27.179 32.0885 27.4935 31.8412C27.7722 31.6262 27.9497 31.5212 28.0335 31.4862L27.3147 29.7537C26.9935 29.8875 26.656 30.1187 26.3485 30.3562C26.026 30.605 25.6735 30.9087 25.316 31.235C24.601 31.8875 23.816 32.6712 23.1197 33.365L24.4435 34.6925ZM30.0447 29.4075C29.1201 29.2738 28.1766 29.3934 27.3147 29.7537L28.0335 31.4862C28.5816 31.2554 29.1821 31.1789 29.771 31.2625L30.0447 29.4075ZM23.7597 36.4662L24.2335 36.6537L24.9235 34.9112L24.451 34.7237L23.7597 36.4662ZM26.1035 37.88L27.3035 39.0775L28.6285 37.75L27.4297 36.5525L26.1035 37.88ZM24.2335 36.6537L24.376 36.7112L25.0897 34.9775L24.9235 34.9112L24.2335 36.6537ZM27.4272 36.5525L27.301 36.4275L25.9947 37.7725L26.1035 37.88L27.4272 36.5525ZM24.376 36.7112C24.9785 36.9587 25.5272 37.32 25.9947 37.7737L27.301 36.4275C26.6627 35.8081 25.9122 35.3159 25.0897 34.9775L24.376 36.7112ZM23.1197 33.365C22.897 33.5867 22.7331 33.8603 22.6426 34.1612C22.5522 34.4622 22.5381 34.7809 22.6016 35.0886C22.6651 35.3963 22.8042 35.6834 23.0064 35.9239C23.2086 36.1644 23.4675 36.3508 23.7597 36.4662L24.451 34.7237L24.4422 34.7187L24.4385 34.7087V34.7L24.4435 34.6925L23.1197 33.365ZM41.706 41.5587L42.2135 42.3425L43.7872 41.3237L43.2797 40.54L41.706 41.5587ZM40.286 50.48L40.181 50.5862L41.506 51.9125L41.611 51.8087L40.286 50.48ZM42.2135 42.3425C42.731 43.1425 43.0885 43.6962 43.3385 44.155C43.5797 44.6025 43.686 44.9012 43.726 45.1737L45.581 44.8987C45.496 44.3275 45.2835 43.8112 44.986 43.2612C44.6947 42.7237 44.2885 42.0987 43.7872 41.3237L42.2135 42.3425ZM41.611 51.8087C42.3072 51.1137 43.0922 50.33 43.7472 49.6175C44.0735 49.2612 44.3785 48.91 44.6285 48.5887C44.866 48.2825 45.0985 47.945 45.2322 47.6237L43.5022 46.9025C43.404 47.0944 43.2845 47.2747 43.146 47.44C42.8982 47.7536 42.638 48.0572 42.366 48.35C41.6875 49.0744 40.9941 49.7846 40.286 50.48L41.611 51.8087ZM43.726 45.1737C43.811 45.7437 43.736 46.3412 43.501 46.9025L45.2322 47.6237C45.5947 46.7633 45.7153 45.8227 45.581 44.8987L43.726 45.1737ZM37.896 46.9937L37.2422 46.42L36.0072 47.83L36.6597 48.4025L37.896 46.9937ZM40.3072 50.6212C40.0385 49.9475 39.8772 49.54 39.6647 49.1537L38.021 50.0537C38.166 50.3162 38.281 50.6012 38.5647 51.3162L40.3072 50.6212ZM36.616 48.3625C37.161 48.905 37.3785 49.1237 37.5635 49.36L39.0385 48.2025C38.7672 47.8562 38.4547 47.5462 37.9397 47.0337L36.616 48.3625ZM39.666 49.1525C39.4829 48.8193 39.2731 48.5016 39.0385 48.2025L37.5635 49.36C37.7351 49.5783 37.8876 49.8096 38.021 50.0537L39.666 49.1525ZM41.8272 35.25C41.5471 35.5287 41.168 35.6851 40.7728 35.6851C40.3777 35.6851 39.9986 35.5287 39.7185 35.25L38.3947 36.5775C39.0264 37.2069 39.8817 37.5603 40.7735 37.5603C41.6652 37.5603 42.5206 37.2069 43.1522 36.5775L41.8272 35.25ZM39.7185 35.25C39.5799 35.1128 39.47 34.9496 39.3949 34.7697C39.3199 34.5898 39.2813 34.3968 39.2813 34.2019C39.2813 34.0069 39.3199 33.8139 39.3949 33.634C39.47 33.4541 39.5799 33.2909 39.7185 33.1537L38.3947 31.8262C38.0818 32.1375 37.8334 32.5076 37.664 32.9152C37.4945 33.3228 37.4073 33.7598 37.4073 34.2012C37.4073 34.6426 37.4945 35.0797 37.664 35.4873C37.8334 35.8949 38.0818 36.2649 38.3947 36.5762L39.7185 35.25ZM39.7185 33.1537C39.9987 32.8747 40.378 32.718 40.7735 32.718C41.1689 32.718 41.5483 32.8747 41.8285 33.1537L43.1522 31.8262C42.5206 31.1968 41.6652 30.8434 40.7735 30.8434C39.8817 30.8434 39.0264 31.1968 38.3947 31.8262L39.7185 33.1537ZM41.8285 33.1537C41.967 33.2909 42.0769 33.4541 42.152 33.634C42.227 33.8139 42.2656 34.0069 42.2656 34.2019C42.2656 34.3968 42.227 34.5898 42.152 34.7697C42.0769 34.9496 41.9657 35.1128 41.8272 35.25L43.1522 36.5775C43.4651 36.2662 43.7135 35.8961 43.8829 35.4885C44.0524 35.0809 44.1396 34.6439 44.1396 34.2025C44.1396 33.7611 44.0524 33.324 43.8829 32.9164C43.7135 32.5089 43.4651 32.1375 43.1522 31.8262L41.8285 33.1537ZM40.1797 50.585C40.1902 50.5765 40.202 50.5697 40.2147 50.565L40.2435 50.5637L40.2735 50.5787C40.2885 50.5912 40.2993 50.6054 40.306 50.6212L38.5635 51.315C39.0435 52.5187 40.6035 52.81 41.5035 51.9125L40.1797 50.585ZM38.396 43.8075C37.7572 44.445 37.2747 44.9237 36.861 45.28C36.4472 45.6387 36.1672 45.8125 35.9485 45.8937L36.596 47.6537C37.131 47.4562 37.6135 47.1087 38.0872 46.6987C38.561 46.2887 39.0972 45.755 39.7185 45.1362L38.396 43.8075ZM35.9485 45.8937C35.8449 45.9342 35.7359 45.9546 35.6247 45.9537V47.8287C35.9614 47.8279 36.2843 47.7696 36.596 47.6537L35.9485 45.8937ZM37.286 46.4625L36.936 46.1112L35.6085 47.4362L35.961 47.7875L37.286 46.4625ZM29.8122 35.25C29.206 35.855 28.6822 36.3762 28.2747 36.84C27.8697 37.3025 27.5235 37.7712 27.3172 38.285L29.056 38.985C29.1447 38.7637 29.3272 38.485 29.6847 38.0762C30.041 37.67 30.5135 37.1987 31.136 36.5762L29.8122 35.25ZM27.3172 38.285C27.1798 38.6184 27.1093 38.9756 27.1097 39.3362H28.9847C28.9847 39.2237 29.0047 39.1137 29.056 38.985L27.3172 38.285ZM27.3035 39.0775L27.5235 39.2975L28.8485 37.9725L28.631 37.75L27.3035 39.0775Z" fill="#1FB4AB"/>
</g>
<defs>
<filter id="filter0_f_279_469" x="0.378378" y="0.378378" width="75.2432" height="75.2432" filterUnits="userSpaceOnUse" color-interpolation-filters="sRGB">
<feFlood flood-opacity="0" result="BackgroundImageFix"/>
<feBlend mode="normal" in="SourceGraphic" in2="BackgroundImageFix" result="shape"/>
<feGaussianBlur stdDeviation="10.8108" result="effect1_foregroundBlur_279_469"/>
</filter>
<clipPath id="clip0_279_469">
<rect width="32" height="32" fill="white" transform="translate(22 21)"/>
</clipPath>
</defs>
</svg>
