<svg width="464" height="69" viewBox="0 0 464 69" fill="none" xmlns="http://www.w3.org/2000/svg">
<path d="M40.25 10.0625H28.75C17.9084 10.0625 12.4861 10.0625 9.1195 13.432C5.75287 16.8015 5.75 22.2209 5.75 33.0625V35.9375C5.75 46.7791 5.75 52.2014 9.1195 55.568C12.489 58.9346 17.9084 58.9375 28.75 58.9375H40.25C51.0916 58.9375 56.5139 58.9375 59.8805 55.568C63.2471 52.1985 63.25 46.7791 63.25 35.9375V33.0625C63.25 22.2209 63.25 16.7986 59.8805 13.432C56.511 10.0654 51.0916 10.0625 40.25 10.0625Z" stroke="#1FB4AB" stroke-width="4.3125" stroke-linecap="round" stroke-linejoin="round"/>
<path d="M14.375 46C17.3535 38.5796 28.451 38.0938 31.625 46M40.25 24.4375H54.625M40.25 34.5H54.625M40.25 44.5625H47.4375M28.0312 28.0312C28.0312 29.3656 27.5012 30.6453 26.5576 31.5889C25.6141 32.5324 24.3344 33.0625 23 33.0625C21.6656 33.0625 20.3859 32.5324 19.4424 31.5889C18.4988 30.6453 17.9688 29.3656 17.9688 28.0312C17.9688 26.6969 18.4988 25.4172 19.4424 24.4736C20.3859 23.5301 21.6656 23 23 23C24.3344 23 25.6141 23.5301 26.5576 24.4736C27.5012 25.4172 28.0312 26.6969 28.0312 28.0312Z" stroke="#1FB4AB" stroke-width="4.3125" stroke-linecap="round" stroke-linejoin="round"/>
<path d="M105.594 26.9394V36.487C105.594 37.8292 105.919 38.8251 106.568 39.4746C107.232 40.1241 108.149 40.4489 109.318 40.4489C110.472 40.4489 111.374 40.1241 112.024 39.4746C112.688 38.8251 113.02 37.8292 113.02 36.487V26.9394H114.99V36.4653C114.99 37.721 114.737 38.7818 114.232 39.6478C113.727 40.4994 113.041 41.1344 112.175 41.553C111.324 41.9716 110.364 42.1808 109.296 42.1808C108.228 42.1808 107.261 41.9716 106.395 41.553C105.543 41.1344 104.865 40.4994 104.36 39.6478C103.869 38.7818 103.624 37.721 103.624 36.4653V26.9394H105.594ZM120.247 32.3519C120.636 31.6735 121.214 31.1106 121.978 30.6632C122.758 30.2013 123.66 29.9704 124.685 29.9704C125.738 29.9704 126.691 30.223 127.542 30.7281C128.408 31.2333 129.087 31.9477 129.578 32.8715C130.068 33.7807 130.314 34.8416 130.314 36.054C130.314 37.2519 130.068 38.32 129.578 39.2581C129.087 40.1963 128.408 40.9252 127.542 41.4448C126.691 41.9643 125.738 42.2241 124.685 42.2241C123.674 42.2241 122.78 42.0004 122 41.553C121.235 41.0911 120.651 40.521 120.247 39.8427V47.6582H118.276V30.1652H120.247V32.3519ZM128.3 36.054C128.3 35.1591 128.12 34.3797 127.759 33.7158C127.398 33.0519 126.907 32.5467 126.287 32.2003C125.681 31.8539 125.009 31.6807 124.273 31.6807C123.552 31.6807 122.881 31.8611 122.26 32.222C121.654 32.5684 121.163 33.0807 120.788 33.7591C120.427 34.423 120.247 35.1952 120.247 36.0756C120.247 36.9705 120.427 37.7571 120.788 38.4354C121.163 39.0994 121.654 39.6117 122.26 39.9726C122.881 40.319 123.552 40.4922 124.273 40.4922C125.009 40.4922 125.681 40.319 126.287 39.9726C126.907 39.6117 127.398 39.0994 127.759 38.4354C128.12 37.7571 128.3 36.9633 128.3 36.054ZM134.877 26.0085V42.0293H132.907V26.0085H134.877ZM143.409 42.2241C142.298 42.2241 141.287 41.9716 140.378 41.4664C139.483 40.9612 138.776 40.2468 138.256 39.3231C137.751 38.3849 137.499 37.3024 137.499 36.0756C137.499 34.8632 137.758 33.7952 138.278 32.8715C138.812 31.9333 139.534 31.2189 140.443 30.7281C141.352 30.223 142.37 29.9704 143.496 29.9704C144.621 29.9704 145.639 30.223 146.548 30.7281C147.458 31.2189 148.172 31.9261 148.692 32.8498C149.226 33.7735 149.493 34.8488 149.493 36.0756C149.493 37.3024 149.218 38.3849 148.67 39.3231C148.136 40.2468 147.407 40.9612 146.483 41.4664C145.56 41.9716 144.535 42.2241 143.409 42.2241ZM143.409 40.4922C144.116 40.4922 144.78 40.3262 145.401 39.9942C146.021 39.6623 146.519 39.1643 146.895 38.5004C147.284 37.8365 147.479 37.0282 147.479 36.0756C147.479 35.123 147.292 34.3148 146.916 33.6508C146.541 32.9869 146.05 32.4962 145.444 32.1787C144.838 31.8467 144.181 31.6807 143.474 31.6807C142.752 31.6807 142.088 31.8467 141.482 32.1787C140.89 32.4962 140.414 32.9869 140.053 33.6508C139.692 34.3148 139.512 35.123 139.512 36.0756C139.512 37.0426 139.685 37.8581 140.032 38.522C140.392 39.186 140.869 39.6839 141.461 40.0159C142.052 40.3334 142.702 40.4922 143.409 40.4922ZM151.347 36.054C151.347 34.8416 151.592 33.7807 152.083 32.8715C152.574 31.9477 153.245 31.2333 154.096 30.7281C154.962 30.223 155.922 29.9704 156.976 29.9704C158.015 29.9704 158.917 30.1941 159.682 30.6415C160.447 31.089 161.017 31.6519 161.392 32.3302V30.1652H163.384V42.0293H161.392V39.821C161.003 40.5138 160.418 41.0911 159.639 41.553C158.874 42.0004 157.979 42.2241 156.954 42.2241C155.901 42.2241 154.948 41.9643 154.096 41.4448C153.245 40.9252 152.574 40.1963 152.083 39.2581C151.592 38.32 151.347 37.2519 151.347 36.054ZM161.392 36.0756C161.392 35.1808 161.212 34.4014 160.851 33.7374C160.49 33.0735 160 32.5684 159.379 32.222C158.773 31.8611 158.102 31.6807 157.365 31.6807C156.629 31.6807 155.958 31.8539 155.352 32.2003C154.746 32.5467 154.262 33.0519 153.902 33.7158C153.541 34.3797 153.36 35.1591 153.36 36.054C153.36 36.9633 153.541 37.7571 153.902 38.4354C154.262 39.0994 154.746 39.6117 155.352 39.9726C155.958 40.319 156.629 40.4922 157.365 40.4922C158.102 40.4922 158.773 40.319 159.379 39.9726C160 39.6117 160.49 39.0994 160.851 38.4354C161.212 37.7571 161.392 36.9705 161.392 36.0756ZM165.977 36.054C165.977 34.8416 166.223 33.7807 166.713 32.8715C167.204 31.9477 167.875 31.2333 168.727 30.7281C169.593 30.223 170.56 29.9704 171.628 29.9704C172.552 29.9704 173.41 30.1869 174.204 30.6199C174.998 31.0384 175.604 31.5941 176.023 32.2869V26.0085H178.015V42.0293H176.023V39.7994C175.633 40.5066 175.056 41.0911 174.291 41.553C173.526 42.0004 172.631 42.2241 171.606 42.2241C170.553 42.2241 169.593 41.9643 168.727 41.4448C167.875 40.9252 167.204 40.1963 166.713 39.2581C166.223 38.32 165.977 37.2519 165.977 36.054ZM176.023 36.0756C176.023 35.1808 175.842 34.4014 175.482 33.7374C175.121 33.0735 174.63 32.5684 174.009 32.222C173.403 31.8611 172.732 31.6807 171.996 31.6807C171.26 31.6807 170.589 31.8539 169.983 32.2003C169.376 32.5467 168.893 33.0519 168.532 33.7158C168.171 34.3797 167.991 35.1591 167.991 36.054C167.991 36.9633 168.171 37.7571 168.532 38.4354C168.893 39.0994 169.376 39.6117 169.983 39.9726C170.589 40.319 171.26 40.4922 171.996 40.4922C172.732 40.4922 173.403 40.319 174.009 39.9726C174.63 39.6117 175.121 39.0994 175.482 38.4354C175.842 37.7571 176.023 36.9705 176.023 36.0756ZM189.086 26.9394V42.0293H187.116V26.9394H189.086ZM191.708 36.054C191.708 34.8416 191.953 33.7807 192.444 32.8715C192.934 31.9477 193.606 31.2333 194.457 30.7281C195.323 30.223 196.29 29.9704 197.358 29.9704C198.282 29.9704 199.141 30.1869 199.934 30.6199C200.728 31.0384 201.334 31.5941 201.753 32.2869V26.0085H203.745V42.0293H201.753V39.7994C201.363 40.5066 200.786 41.0911 200.021 41.553C199.256 42.0004 198.361 42.2241 197.336 42.2241C196.283 42.2241 195.323 41.9643 194.457 41.4448C193.606 40.9252 192.934 40.1963 192.444 39.2581C191.953 38.32 191.708 37.2519 191.708 36.054ZM201.753 36.0756C201.753 35.1808 201.573 34.4014 201.212 33.7374C200.851 33.0735 200.36 32.5684 199.74 32.222C199.133 31.8611 198.462 31.6807 197.726 31.6807C196.99 31.6807 196.319 31.8539 195.713 32.2003C195.107 32.5467 194.623 33.0519 194.262 33.7158C193.901 34.3797 193.721 35.1591 193.721 36.054C193.721 36.9633 193.901 37.7571 194.262 38.4354C194.623 39.0994 195.107 39.6117 195.713 39.9726C196.319 40.319 196.99 40.4922 197.726 40.4922C198.462 40.4922 199.133 40.319 199.74 39.9726C200.36 39.6117 200.851 39.0994 201.212 38.4354C201.573 37.7571 201.753 36.9705 201.753 36.0756ZM217.899 35.6426C217.899 36.0179 217.877 36.4148 217.834 36.8334H208.351C208.424 38.0024 208.821 38.919 209.542 39.5829C210.278 40.2324 211.166 40.5571 212.205 40.5571C213.057 40.5571 213.764 40.3623 214.327 39.9726C214.904 39.5684 215.308 39.0344 215.539 38.3705H217.661C217.343 39.5107 216.708 40.4416 215.756 41.1633C214.803 41.8705 213.62 42.2241 212.205 42.2241C211.079 42.2241 210.069 41.9716 209.174 41.4664C208.294 40.9612 207.601 40.2468 207.096 39.3231C206.591 38.3849 206.338 37.3024 206.338 36.0756C206.338 34.8488 206.583 33.7735 207.074 32.8498C207.565 31.9261 208.25 31.2189 209.131 30.7281C210.026 30.223 211.05 29.9704 212.205 29.9704C213.331 29.9704 214.327 30.2158 215.193 30.7065C216.059 31.1972 216.723 31.8756 217.185 32.7416C217.661 33.5931 217.899 34.5601 217.899 35.6426ZM215.864 35.2313C215.864 34.4808 215.698 33.8385 215.366 33.3045C215.034 32.756 214.579 32.3446 214.002 32.0704C213.439 31.7818 212.811 31.6374 212.119 31.6374C211.123 31.6374 210.271 31.955 209.564 32.59C208.871 33.2251 208.474 34.1055 208.373 35.2313H215.864ZM226.28 29.9487C227.723 29.9487 228.892 30.389 229.787 31.2694C230.682 32.1354 231.13 33.3911 231.13 35.0364V42.0293H229.181V35.3179C229.181 34.1344 228.885 33.2323 228.293 32.6117C227.702 31.9766 226.893 31.6591 225.869 31.6591C224.829 31.6591 224 31.9838 223.379 32.6333C222.773 33.2828 222.47 34.2282 222.47 35.4694V42.0293H220.5V30.1652H222.47V31.8539C222.859 31.2477 223.386 30.7786 224.05 30.4467C224.728 30.1147 225.472 29.9487 226.28 29.9487ZM236.751 31.789V38.7818C236.751 39.3592 236.874 39.7705 237.119 40.0159C237.364 40.2468 237.79 40.3623 238.396 40.3623H239.847V42.0293H238.071C236.975 42.0293 236.152 41.7767 235.603 41.2716C235.055 40.7664 234.781 39.9365 234.781 38.7818V31.789H233.244V30.1652H234.781V27.1776H236.751V30.1652H239.847V31.789H236.751ZM243.251 28.2384C242.876 28.2384 242.559 28.1085 242.299 27.8487C242.039 27.5889 241.909 27.2714 241.909 26.8961C241.909 26.5209 242.039 26.2033 242.299 25.9435C242.559 25.6837 242.876 25.5538 243.251 25.5538C243.612 25.5538 243.915 25.6837 244.161 25.9435C244.42 26.2033 244.55 26.5209 244.55 26.8961C244.55 27.2714 244.42 27.5889 244.161 27.8487C243.915 28.1085 243.612 28.2384 243.251 28.2384ZM244.204 30.1652V42.0293H242.234V30.1652H244.204ZM249.965 31.789V38.7818C249.965 39.3592 250.087 39.7705 250.333 40.0159C250.578 40.2468 251.004 40.3623 251.61 40.3623H253.061V42.0293H251.285C250.189 42.0293 249.366 41.7767 248.817 41.2716C248.269 40.7664 247.995 39.9365 247.995 38.7818V31.789H246.458V30.1652H247.995V27.1776H249.965V30.1652H253.061V31.789H249.965ZM265.666 30.1652L258.522 47.6149H256.487L258.825 41.8994L254.041 30.1652H256.227L259.951 39.7777L263.631 30.1652H265.666ZM272.683 34.4735C272.683 33.0014 273.015 31.6807 273.679 30.5116C274.342 29.3281 275.245 28.4044 276.385 27.7405C277.539 27.0765 278.817 26.7446 280.217 26.7446C281.862 26.7446 283.298 27.1415 284.525 27.9353C285.752 28.7291 286.647 29.8549 287.21 31.3127H284.85C284.431 30.4034 283.825 29.7034 283.031 29.2127C282.252 28.7219 281.314 28.4766 280.217 28.4766C279.163 28.4766 278.218 28.7219 277.381 29.2127C276.544 29.7034 275.887 30.4034 275.411 31.3127C274.934 32.2075 274.696 33.2612 274.696 34.4735C274.696 35.6715 274.934 36.7251 275.411 37.6344C275.887 38.5293 276.544 39.222 277.381 39.7128C278.218 40.2035 279.163 40.4489 280.217 40.4489C281.314 40.4489 282.252 40.2107 283.031 39.7344C283.825 39.2437 284.431 38.5437 284.85 37.6344H287.21C286.647 39.0777 285.752 40.1963 284.525 40.9901C283.298 41.7695 281.862 42.1592 280.217 42.1592C278.817 42.1592 277.539 41.8344 276.385 41.185C275.245 40.521 274.342 39.6045 273.679 38.4354C273.015 37.2664 272.683 35.9457 272.683 34.4735ZM289.406 36.054C289.406 34.8416 289.652 33.7807 290.142 32.8715C290.633 31.9477 291.304 31.2333 292.156 30.7281C293.022 30.223 293.982 29.9704 295.035 29.9704C296.074 29.9704 296.976 30.1941 297.741 30.6415C298.506 31.089 299.076 31.6519 299.452 32.3302V30.1652H301.443V42.0293H299.452V39.821C299.062 40.5138 298.477 41.0911 297.698 41.553C296.933 42.0004 296.038 42.2241 295.014 42.2241C293.96 42.2241 293.007 41.9643 292.156 41.4448C291.304 40.9252 290.633 40.1963 290.142 39.2581C289.652 38.32 289.406 37.2519 289.406 36.054ZM299.452 36.0756C299.452 35.1808 299.271 34.4014 298.91 33.7374C298.55 33.0735 298.059 32.5684 297.438 32.222C296.832 31.8611 296.161 31.6807 295.425 31.6807C294.689 31.6807 294.018 31.8539 293.411 32.2003C292.805 32.5467 292.322 33.0519 291.961 33.7158C291.6 34.3797 291.42 35.1591 291.42 36.054C291.42 36.9633 291.6 37.7571 291.961 38.4354C292.322 39.0994 292.805 39.6117 293.411 39.9726C294.018 40.319 294.689 40.4922 295.425 40.4922C296.161 40.4922 296.832 40.319 297.438 39.9726C298.059 39.6117 298.55 39.0994 298.91 38.4354C299.271 37.7571 299.452 36.9705 299.452 36.0756ZM306.743 32.0921C307.089 31.4137 307.58 30.8869 308.215 30.5116C308.865 30.1364 309.651 29.9487 310.575 29.9487V31.9838H310.055C307.847 31.9838 306.743 33.1818 306.743 35.5777V42.0293H304.773V30.1652H306.743V32.0921ZM312.113 36.054C312.113 34.8416 312.358 33.7807 312.849 32.8715C313.34 31.9477 314.011 31.2333 314.863 30.7281C315.729 30.223 316.696 29.9704 317.764 29.9704C318.687 29.9704 319.546 30.1869 320.34 30.6199C321.134 31.0384 321.74 31.5941 322.159 32.2869V26.0085H324.15V42.0293H322.159V39.7994C321.769 40.5066 321.192 41.0911 320.427 41.553C319.662 42.0004 318.767 42.2241 317.742 42.2241C316.688 42.2241 315.729 41.9643 314.863 41.4448C314.011 40.9252 313.34 40.1963 312.849 39.2581C312.358 38.32 312.113 37.2519 312.113 36.054ZM322.159 36.0756C322.159 35.1808 321.978 34.4014 321.617 33.7374C321.256 33.0735 320.766 32.5684 320.145 32.222C319.539 31.8611 318.868 31.6807 318.132 31.6807C317.396 31.6807 316.724 31.8539 316.118 32.2003C315.512 32.5467 315.029 33.0519 314.668 33.7158C314.307 34.3797 314.127 35.1591 314.127 36.054C314.127 36.9633 314.307 37.7571 314.668 38.4354C315.029 39.0994 315.512 39.6117 316.118 39.9726C316.724 40.319 317.396 40.4922 318.132 40.4922C318.868 40.4922 319.539 40.319 320.145 39.9726C320.766 39.6117 321.256 39.0994 321.617 38.4354C321.978 37.7571 322.159 36.9705 322.159 36.0756ZM338.426 42.2241C337.314 42.2241 336.304 41.9716 335.395 41.4664C334.5 40.9612 333.793 40.2468 333.273 39.3231C332.768 38.3849 332.515 37.3024 332.515 36.0756C332.515 34.8632 332.775 33.7952 333.295 32.8715C333.829 31.9333 334.551 31.2189 335.46 30.7281C336.369 30.223 337.387 29.9704 338.512 29.9704C339.638 29.9704 340.656 30.223 341.565 30.7281C342.474 31.2189 343.189 31.9261 343.708 32.8498C344.242 33.7735 344.509 34.8488 344.509 36.0756C344.509 37.3024 344.235 38.3849 343.687 39.3231C343.153 40.2468 342.424 40.9612 341.5 41.4664C340.576 41.9716 339.552 42.2241 338.426 42.2241ZM338.426 40.4922C339.133 40.4922 339.797 40.3262 340.418 39.9942C341.038 39.6623 341.536 39.1643 341.911 38.5004C342.301 37.8365 342.496 37.0282 342.496 36.0756C342.496 35.123 342.308 34.3148 341.933 33.6508C341.558 32.9869 341.067 32.4962 340.461 32.1787C339.855 31.8467 339.198 31.6807 338.491 31.6807C337.769 31.6807 337.105 31.8467 336.499 32.1787C335.907 32.4962 335.431 32.9869 335.07 33.6508C334.709 34.3148 334.529 35.123 334.529 36.0756C334.529 37.0426 334.702 37.8581 335.048 38.522C335.409 39.186 335.886 39.6839 336.477 40.0159C337.069 40.3334 337.719 40.4922 338.426 40.4922ZM349.07 32.0921C349.416 31.4137 349.907 30.8869 350.542 30.5116C351.192 30.1364 351.978 29.9487 352.902 29.9487V31.9838H352.382C350.174 31.9838 349.07 33.1818 349.07 35.5777V42.0293H347.1V30.1652H349.07V32.0921ZM371.037 31.356C371.037 32.6117 370.604 33.6581 369.738 34.4952C368.886 35.3179 367.58 35.7292 365.819 35.7292H362.918V42.0293H360.948V26.9394H365.819C367.522 26.9394 368.814 27.3508 369.694 28.1735C370.589 28.9962 371.037 30.057 371.037 31.356ZM365.819 34.1055C366.916 34.1055 367.724 33.8673 368.244 33.3911C368.764 32.9148 369.023 32.2364 369.023 31.356C369.023 29.4941 367.955 28.5632 365.819 28.5632H362.918V34.1055H365.819ZM372.749 36.054C372.749 34.8416 372.995 33.7807 373.485 32.8715C373.976 31.9477 374.647 31.2333 375.499 30.7281C376.365 30.223 377.325 29.9704 378.378 29.9704C379.417 29.9704 380.319 30.1941 381.084 30.6415C381.849 31.089 382.419 31.6519 382.795 32.3302V30.1652H384.787V42.0293H382.795V39.821C382.405 40.5138 381.821 41.0911 381.041 41.553C380.276 42.0004 379.381 42.2241 378.357 42.2241C377.303 42.2241 376.35 41.9643 375.499 41.4448C374.647 40.9252 373.976 40.1963 373.485 39.2581C372.995 38.32 372.749 37.2519 372.749 36.054ZM382.795 36.0756C382.795 35.1808 382.614 34.4014 382.254 33.7374C381.893 33.0735 381.402 32.5684 380.781 32.222C380.175 31.8611 379.504 31.6807 378.768 31.6807C378.032 31.6807 377.361 31.8539 376.754 32.2003C376.148 32.5467 375.665 33.0519 375.304 33.7158C374.943 34.3797 374.763 35.1591 374.763 36.054C374.763 36.9633 374.943 37.7571 375.304 38.4354C375.665 39.0994 376.148 39.6117 376.754 39.9726C377.361 40.319 378.032 40.4922 378.768 40.4922C379.504 40.4922 380.175 40.319 380.781 39.9726C381.402 39.6117 381.893 39.0994 382.254 38.4354C382.614 37.7571 382.795 36.9705 382.795 36.0756ZM392.316 42.2241C391.407 42.2241 390.591 42.0726 389.869 41.7695C389.148 41.452 388.578 41.019 388.159 40.4705C387.741 39.9076 387.51 39.2653 387.466 38.5437H389.501C389.559 39.1354 389.833 39.619 390.324 39.9942C390.829 40.3695 391.486 40.5571 392.294 40.5571C393.045 40.5571 393.637 40.3911 394.07 40.0592C394.503 39.7272 394.719 39.3086 394.719 38.8035C394.719 38.2839 394.488 37.9014 394.026 37.656C393.564 37.3963 392.85 37.1437 391.883 36.8983C391.002 36.6674 390.281 36.4364 389.718 36.2055C389.169 35.9602 388.693 35.6065 388.289 35.1447C387.899 34.6684 387.705 34.0478 387.705 33.2828C387.705 32.6766 387.885 32.1209 388.246 31.6158C388.607 31.1106 389.119 30.7137 389.783 30.425C390.447 30.1219 391.205 29.9704 392.056 29.9704C393.37 29.9704 394.43 30.3024 395.239 30.9663C396.047 31.6302 396.48 32.5395 396.538 33.6941H394.567C394.524 33.0735 394.272 32.5756 393.81 32.2003C393.362 31.8251 392.756 31.6374 391.991 31.6374C391.284 31.6374 390.721 31.789 390.302 32.0921C389.884 32.3952 389.675 32.7921 389.675 33.2828C389.675 33.6725 389.797 33.9972 390.043 34.257C390.302 34.5024 390.62 34.7045 390.995 34.8632C391.385 35.0076 391.919 35.1735 392.597 35.3612C393.449 35.5921 394.142 35.823 394.676 36.054C395.21 36.2705 395.664 36.6024 396.04 37.0499C396.429 37.4973 396.631 38.0818 396.646 38.8035C396.646 39.453 396.465 40.0375 396.105 40.5571C395.744 41.0767 395.231 41.4881 394.567 41.7911C393.918 42.0798 393.167 42.2241 392.316 42.2241ZM403.627 42.2241C402.718 42.2241 401.902 42.0726 401.181 41.7695C400.459 41.452 399.889 41.019 399.47 40.4705C399.052 39.9076 398.821 39.2653 398.777 38.5437H400.813C400.87 39.1354 401.145 39.619 401.635 39.9942C402.14 40.3695 402.797 40.5571 403.605 40.5571C404.356 40.5571 404.948 40.3911 405.381 40.0592C405.814 39.7272 406.03 39.3086 406.03 38.8035C406.03 38.2839 405.799 37.9014 405.337 37.656C404.875 37.3963 404.161 37.1437 403.194 36.8983C402.314 36.6674 401.592 36.4364 401.029 36.2055C400.481 35.9602 400.004 35.6065 399.6 35.1447C399.21 34.6684 399.016 34.0478 399.016 33.2828C399.016 32.6766 399.196 32.1209 399.557 31.6158C399.918 31.1106 400.43 30.7137 401.094 30.425C401.758 30.1219 402.516 29.9704 403.367 29.9704C404.681 29.9704 405.741 30.3024 406.55 30.9663C407.358 31.6302 407.791 32.5395 407.849 33.6941H405.879C405.835 33.0735 405.583 32.5756 405.121 32.2003C404.673 31.8251 404.067 31.6374 403.302 31.6374C402.595 31.6374 402.032 31.789 401.614 32.0921C401.195 32.3952 400.986 32.7921 400.986 33.2828C400.986 33.6725 401.108 33.9972 401.354 34.257C401.614 34.5024 401.931 34.7045 402.306 34.8632C402.696 35.0076 403.23 35.1735 403.908 35.3612C404.76 35.5921 405.453 35.823 405.987 36.054C406.521 36.2705 406.976 36.6024 407.351 37.0499C407.74 37.4973 407.943 38.0818 407.957 38.8035C407.957 39.453 407.777 40.0375 407.416 40.5571C407.055 41.0767 406.543 41.4881 405.879 41.7911C405.229 42.0798 404.479 42.2241 403.627 42.2241ZM426.542 30.1652L422.84 42.0293H420.805L417.947 32.6117L415.09 42.0293H413.055L409.331 30.1652H411.344L414.072 40.1241L417.017 30.1652H419.03L421.909 40.1458L424.594 30.1652H426.542ZM433.672 42.2241C432.561 42.2241 431.55 41.9716 430.641 41.4664C429.746 40.9612 429.039 40.2468 428.519 39.3231C428.014 38.3849 427.762 37.3024 427.762 36.0756C427.762 34.8632 428.021 33.7952 428.541 32.8715C429.075 31.9333 429.797 31.2189 430.706 30.7281C431.615 30.223 432.633 29.9704 433.759 29.9704C434.884 29.9704 435.902 30.223 436.811 30.7281C437.72 31.2189 438.435 31.9261 438.955 32.8498C439.489 33.7735 439.756 34.8488 439.756 36.0756C439.756 37.3024 439.481 38.3849 438.933 39.3231C438.399 40.2468 437.67 40.9612 436.746 41.4664C435.823 41.9716 434.798 42.2241 433.672 42.2241ZM433.672 40.4922C434.379 40.4922 435.043 40.3262 435.664 39.9942C436.284 39.6623 436.782 39.1643 437.158 38.5004C437.547 37.8365 437.742 37.0282 437.742 36.0756C437.742 35.123 437.554 34.3148 437.179 33.6508C436.804 32.9869 436.313 32.4962 435.707 32.1787C435.101 31.8467 434.444 31.6807 433.737 31.6807C433.015 31.6807 432.351 31.8467 431.745 32.1787C431.153 32.4962 430.677 32.9869 430.316 33.6508C429.955 34.3148 429.775 35.123 429.775 36.0756C429.775 37.0426 429.948 37.8581 430.295 38.522C430.655 39.186 431.132 39.6839 431.723 40.0159C432.315 40.3334 432.965 40.4922 433.672 40.4922ZM444.316 32.0921C444.662 31.4137 445.153 30.8869 445.788 30.5116C446.438 30.1364 447.224 29.9487 448.148 29.9487V31.9838H447.628C445.42 31.9838 444.316 33.1818 444.316 35.5777V42.0293H442.346V30.1652H444.316V32.0921ZM449.686 36.054C449.686 34.8416 449.932 33.7807 450.422 32.8715C450.913 31.9477 451.584 31.2333 452.436 30.7281C453.302 30.223 454.269 29.9704 455.337 29.9704C456.26 29.9704 457.119 30.1869 457.913 30.6199C458.707 31.0384 459.313 31.5941 459.732 32.2869V26.0085H461.723V42.0293H459.732V39.7994C459.342 40.5066 458.765 41.0911 458 41.553C457.235 42.0004 456.34 42.2241 455.315 42.2241C454.261 42.2241 453.302 41.9643 452.436 41.4448C451.584 40.9252 450.913 40.1963 450.422 39.2581C449.932 38.32 449.686 37.2519 449.686 36.054ZM459.732 36.0756C459.732 35.1808 459.551 34.4014 459.19 33.7374C458.83 33.0735 458.339 32.5684 457.718 32.222C457.112 31.8611 456.441 31.6807 455.705 31.6807C454.969 31.6807 454.298 31.8539 453.691 32.2003C453.085 32.5467 452.602 33.0519 452.241 33.7158C451.88 34.3797 451.7 35.1591 451.7 36.054C451.7 36.9633 451.88 37.7571 452.241 38.4354C452.602 39.0994 453.085 39.6117 453.691 39.9726C454.298 40.319 454.969 40.4922 455.705 40.4922C456.441 40.4922 457.112 40.319 457.718 39.9726C458.339 39.6117 458.83 39.0994 459.19 38.4354C459.551 37.7571 459.732 36.9705 459.732 36.0756Z" fill="#1FB4AB"/>
</svg>
