<svg width="462" height="71" viewBox="0 0 462 71" fill="none" xmlns="http://www.w3.org/2000/svg">
<path d="M113.594 30.9394V40.487C113.594 41.8292 113.919 42.8251 114.568 43.4746C115.232 44.1241 116.149 44.4489 117.318 44.4489C118.472 44.4489 119.374 44.1241 120.024 43.4746C120.688 42.8251 121.02 41.8292 121.02 40.487V30.9394H122.99V40.4653C122.99 41.721 122.737 42.7818 122.232 43.6478C121.727 44.4994 121.041 45.1344 120.175 45.553C119.324 45.9716 118.364 46.1808 117.296 46.1808C116.228 46.1808 115.261 45.9716 114.395 45.553C113.543 45.1344 112.865 44.4994 112.36 43.6478C111.869 42.7818 111.624 41.721 111.624 40.4653V30.9394H113.594ZM128.247 36.3519C128.636 35.6735 129.214 35.1106 129.978 34.6632C130.758 34.2013 131.66 33.9704 132.685 33.9704C133.738 33.9704 134.691 34.223 135.542 34.7281C136.408 35.2333 137.087 35.9477 137.578 36.8715C138.068 37.7807 138.314 38.8416 138.314 40.054C138.314 41.2519 138.068 42.32 137.578 43.2581C137.087 44.1963 136.408 44.9252 135.542 45.4448C134.691 45.9643 133.738 46.2241 132.685 46.2241C131.674 46.2241 130.78 46.0004 130 45.553C129.235 45.0911 128.651 44.521 128.247 43.8427V51.6582H126.276V34.1652H128.247V36.3519ZM136.3 40.054C136.3 39.1591 136.12 38.3797 135.759 37.7158C135.398 37.0519 134.907 36.5467 134.287 36.2003C133.681 35.8539 133.009 35.6807 132.273 35.6807C131.552 35.6807 130.881 35.8611 130.26 36.222C129.654 36.5684 129.163 37.0807 128.788 37.7591C128.427 38.423 128.247 39.1952 128.247 40.0756C128.247 40.9705 128.427 41.7571 128.788 42.4354C129.163 43.0994 129.654 43.6117 130.26 43.9726C130.881 44.319 131.552 44.4922 132.273 44.4922C133.009 44.4922 133.681 44.319 134.287 43.9726C134.907 43.6117 135.398 43.0994 135.759 42.4354C136.12 41.7571 136.3 40.9633 136.3 40.054ZM142.877 30.0085V46.0293H140.907V30.0085H142.877ZM151.409 46.2241C150.298 46.2241 149.287 45.9716 148.378 45.4664C147.483 44.9612 146.776 44.2468 146.256 43.3231C145.751 42.3849 145.499 41.3024 145.499 40.0756C145.499 38.8632 145.758 37.7952 146.278 36.8715C146.812 35.9333 147.534 35.2189 148.443 34.7281C149.352 34.223 150.37 33.9704 151.496 33.9704C152.621 33.9704 153.639 34.223 154.548 34.7281C155.458 35.2189 156.172 35.9261 156.692 36.8498C157.226 37.7735 157.493 38.8488 157.493 40.0756C157.493 41.3024 157.218 42.3849 156.67 43.3231C156.136 44.2468 155.407 44.9612 154.483 45.4664C153.56 45.9716 152.535 46.2241 151.409 46.2241ZM151.409 44.4922C152.116 44.4922 152.78 44.3262 153.401 43.9942C154.021 43.6623 154.519 43.1643 154.895 42.5004C155.284 41.8365 155.479 41.0282 155.479 40.0756C155.479 39.123 155.292 38.3148 154.916 37.6508C154.541 36.9869 154.05 36.4962 153.444 36.1787C152.838 35.8467 152.181 35.6807 151.474 35.6807C150.752 35.6807 150.088 35.8467 149.482 36.1787C148.89 36.4962 148.414 36.9869 148.053 37.6508C147.692 38.3148 147.512 39.123 147.512 40.0756C147.512 41.0426 147.685 41.8581 148.032 42.522C148.392 43.186 148.869 43.6839 149.461 44.0159C150.052 44.3334 150.702 44.4922 151.409 44.4922ZM159.347 40.054C159.347 38.8416 159.592 37.7807 160.083 36.8715C160.574 35.9477 161.245 35.2333 162.096 34.7281C162.962 34.223 163.922 33.9704 164.976 33.9704C166.015 33.9704 166.917 34.1941 167.682 34.6415C168.447 35.089 169.017 35.6519 169.392 36.3302V34.1652H171.384V46.0293H169.392V43.821C169.003 44.5138 168.418 45.0911 167.639 45.553C166.874 46.0004 165.979 46.2241 164.954 46.2241C163.901 46.2241 162.948 45.9643 162.096 45.4448C161.245 44.9252 160.574 44.1963 160.083 43.2581C159.592 42.32 159.347 41.2519 159.347 40.054ZM169.392 40.0756C169.392 39.1808 169.212 38.4014 168.851 37.7374C168.49 37.0735 168 36.5684 167.379 36.222C166.773 35.8611 166.102 35.6807 165.365 35.6807C164.629 35.6807 163.958 35.8539 163.352 36.2003C162.746 36.5467 162.262 37.0519 161.902 37.7158C161.541 38.3797 161.36 39.1591 161.36 40.054C161.36 40.9633 161.541 41.7571 161.902 42.4354C162.262 43.0994 162.746 43.6117 163.352 43.9726C163.958 44.319 164.629 44.4922 165.365 44.4922C166.102 44.4922 166.773 44.319 167.379 43.9726C168 43.6117 168.49 43.0994 168.851 42.4354C169.212 41.7571 169.392 40.9705 169.392 40.0756ZM173.977 40.054C173.977 38.8416 174.223 37.7807 174.713 36.8715C175.204 35.9477 175.875 35.2333 176.727 34.7281C177.593 34.223 178.56 33.9704 179.628 33.9704C180.552 33.9704 181.41 34.1869 182.204 34.6199C182.998 35.0384 183.604 35.5941 184.023 36.2869V30.0085H186.015V46.0293H184.023V43.7994C183.633 44.5066 183.056 45.0911 182.291 45.553C181.526 46.0004 180.631 46.2241 179.606 46.2241C178.553 46.2241 177.593 45.9643 176.727 45.4448C175.875 44.9252 175.204 44.1963 174.713 43.2581C174.223 42.32 173.977 41.2519 173.977 40.054ZM184.023 40.0756C184.023 39.1808 183.842 38.4014 183.482 37.7374C183.121 37.0735 182.63 36.5684 182.009 36.222C181.403 35.8611 180.732 35.6807 179.996 35.6807C179.26 35.6807 178.589 35.8539 177.983 36.2003C177.376 36.5467 176.893 37.0519 176.532 37.7158C176.171 38.3797 175.991 39.1591 175.991 40.054C175.991 40.9633 176.171 41.7571 176.532 42.4354C176.893 43.0994 177.376 43.6117 177.983 43.9726C178.589 44.319 179.26 44.4922 179.996 44.4922C180.732 44.4922 181.403 44.319 182.009 43.9726C182.63 43.6117 183.121 43.0994 183.482 42.4354C183.842 41.7571 184.023 40.9705 184.023 40.0756ZM197.086 30.9394V46.0293H195.116V30.9394H197.086ZM199.708 40.054C199.708 38.8416 199.953 37.7807 200.444 36.8715C200.934 35.9477 201.606 35.2333 202.457 34.7281C203.323 34.223 204.29 33.9704 205.358 33.9704C206.282 33.9704 207.141 34.1869 207.934 34.6199C208.728 35.0384 209.334 35.5941 209.753 36.2869V30.0085H211.745V46.0293H209.753V43.7994C209.363 44.5066 208.786 45.0911 208.021 45.553C207.256 46.0004 206.361 46.2241 205.336 46.2241C204.283 46.2241 203.323 45.9643 202.457 45.4448C201.606 44.9252 200.934 44.1963 200.444 43.2581C199.953 42.32 199.708 41.2519 199.708 40.054ZM209.753 40.0756C209.753 39.1808 209.573 38.4014 209.212 37.7374C208.851 37.0735 208.36 36.5684 207.74 36.222C207.133 35.8611 206.462 35.6807 205.726 35.6807C204.99 35.6807 204.319 35.8539 203.713 36.2003C203.107 36.5467 202.623 37.0519 202.262 37.7158C201.901 38.3797 201.721 39.1591 201.721 40.054C201.721 40.9633 201.901 41.7571 202.262 42.4354C202.623 43.0994 203.107 43.6117 203.713 43.9726C204.319 44.319 204.99 44.4922 205.726 44.4922C206.462 44.4922 207.133 44.319 207.74 43.9726C208.36 43.6117 208.851 43.0994 209.212 42.4354C209.573 41.7571 209.753 40.9705 209.753 40.0756ZM225.899 39.6426C225.899 40.0179 225.877 40.4148 225.834 40.8334H216.351C216.424 42.0024 216.821 42.919 217.542 43.5829C218.278 44.2324 219.166 44.5571 220.205 44.5571C221.057 44.5571 221.764 44.3623 222.327 43.9726C222.904 43.5684 223.308 43.0344 223.539 42.3705H225.661C225.343 43.5107 224.708 44.4416 223.756 45.1633C222.803 45.8705 221.62 46.2241 220.205 46.2241C219.079 46.2241 218.069 45.9716 217.174 45.4664C216.294 44.9612 215.601 44.2468 215.096 43.3231C214.591 42.3849 214.338 41.3024 214.338 40.0756C214.338 38.8488 214.583 37.7735 215.074 36.8498C215.565 35.9261 216.25 35.2189 217.131 34.7281C218.026 34.223 219.05 33.9704 220.205 33.9704C221.331 33.9704 222.327 34.2158 223.193 34.7065C224.059 35.1972 224.723 35.8756 225.185 36.7416C225.661 37.5931 225.899 38.5601 225.899 39.6426ZM223.864 39.2313C223.864 38.4808 223.698 37.8385 223.366 37.3045C223.034 36.756 222.579 36.3446 222.002 36.0704C221.439 35.7818 220.811 35.6374 220.119 35.6374C219.123 35.6374 218.271 35.955 217.564 36.59C216.871 37.2251 216.474 38.1055 216.373 39.2313H223.864ZM234.28 33.9487C235.723 33.9487 236.892 34.389 237.787 35.2694C238.682 36.1354 239.13 37.3911 239.13 39.0364V46.0293H237.181V39.3179C237.181 38.1344 236.885 37.2323 236.293 36.6117C235.702 35.9766 234.893 35.6591 233.869 35.6591C232.829 35.6591 232 35.9838 231.379 36.6333C230.773 37.2828 230.47 38.2282 230.47 39.4694V46.0293H228.5V34.1652H230.47V35.8539C230.859 35.2477 231.386 34.7786 232.05 34.4467C232.728 34.1147 233.472 33.9487 234.28 33.9487ZM244.751 35.789V42.7818C244.751 43.3592 244.874 43.7705 245.119 44.0159C245.364 44.2468 245.79 44.3623 246.396 44.3623H247.847V46.0293H246.071C244.975 46.0293 244.152 45.7767 243.603 45.2716C243.055 44.7664 242.781 43.9365 242.781 42.7818V35.789H241.244V34.1652H242.781V31.1776H244.751V34.1652H247.847V35.789H244.751ZM251.251 32.2384C250.876 32.2384 250.559 32.1085 250.299 31.8487C250.039 31.5889 249.909 31.2714 249.909 30.8961C249.909 30.5209 250.039 30.2033 250.299 29.9435C250.559 29.6837 250.876 29.5538 251.251 29.5538C251.612 29.5538 251.915 29.6837 252.161 29.9435C252.42 30.2033 252.55 30.5209 252.55 30.8961C252.55 31.2714 252.42 31.5889 252.161 31.8487C251.915 32.1085 251.612 32.2384 251.251 32.2384ZM252.204 34.1652V46.0293H250.234V34.1652H252.204ZM257.965 35.789V42.7818C257.965 43.3592 258.087 43.7705 258.333 44.0159C258.578 44.2468 259.004 44.3623 259.61 44.3623H261.061V46.0293H259.285C258.189 46.0293 257.366 45.7767 256.817 45.2716C256.269 44.7664 255.995 43.9365 255.995 42.7818V35.789H254.458V34.1652H255.995V31.1776H257.965V34.1652H261.061V35.789H257.965ZM273.666 34.1652L266.522 51.6149H264.487L266.825 45.8994L262.041 34.1652H264.227L267.951 43.7777L271.631 34.1652H273.666ZM280.683 38.4735C280.683 37.0014 281.015 35.6807 281.679 34.5116C282.342 33.3281 283.245 32.4044 284.385 31.7405C285.539 31.0765 286.817 30.7446 288.217 30.7446C289.862 30.7446 291.298 31.1415 292.525 31.9353C293.752 32.7291 294.647 33.8549 295.21 35.3127H292.85C292.431 34.4034 291.825 33.7034 291.031 33.2127C290.252 32.7219 289.314 32.4766 288.217 32.4766C287.163 32.4766 286.218 32.7219 285.381 33.2127C284.544 33.7034 283.887 34.4034 283.411 35.3127C282.934 36.2075 282.696 37.2612 282.696 38.4735C282.696 39.6715 282.934 40.7251 283.411 41.6344C283.887 42.5293 284.544 43.222 285.381 43.7128C286.218 44.2035 287.163 44.4489 288.217 44.4489C289.314 44.4489 290.252 44.2107 291.031 43.7344C291.825 43.2437 292.431 42.5437 292.85 41.6344H295.21C294.647 43.0777 293.752 44.1963 292.525 44.9901C291.298 45.7695 289.862 46.1592 288.217 46.1592C286.817 46.1592 285.539 45.8344 284.385 45.185C283.245 44.521 282.342 43.6045 281.679 42.4354C281.015 41.2664 280.683 39.9457 280.683 38.4735ZM297.406 40.054C297.406 38.8416 297.652 37.7807 298.142 36.8715C298.633 35.9477 299.304 35.2333 300.156 34.7281C301.022 34.223 301.982 33.9704 303.035 33.9704C304.074 33.9704 304.976 34.1941 305.741 34.6415C306.506 35.089 307.076 35.6519 307.452 36.3302V34.1652H309.443V46.0293H307.452V43.821C307.062 44.5138 306.477 45.0911 305.698 45.553C304.933 46.0004 304.038 46.2241 303.014 46.2241C301.96 46.2241 301.007 45.9643 300.156 45.4448C299.304 44.9252 298.633 44.1963 298.142 43.2581C297.652 42.32 297.406 41.2519 297.406 40.054ZM307.452 40.0756C307.452 39.1808 307.271 38.4014 306.91 37.7374C306.55 37.0735 306.059 36.5684 305.438 36.222C304.832 35.8611 304.161 35.6807 303.425 35.6807C302.689 35.6807 302.018 35.8539 301.411 36.2003C300.805 36.5467 300.322 37.0519 299.961 37.7158C299.6 38.3797 299.42 39.1591 299.42 40.054C299.42 40.9633 299.6 41.7571 299.961 42.4354C300.322 43.0994 300.805 43.6117 301.411 43.9726C302.018 44.319 302.689 44.4922 303.425 44.4922C304.161 44.4922 304.832 44.319 305.438 43.9726C306.059 43.6117 306.55 43.0994 306.91 42.4354C307.271 41.7571 307.452 40.9705 307.452 40.0756ZM314.743 36.0921C315.089 35.4137 315.58 34.8869 316.215 34.5116C316.865 34.1364 317.651 33.9487 318.575 33.9487V35.9838H318.055C315.847 35.9838 314.743 37.1818 314.743 39.5777V46.0293H312.773V34.1652H314.743V36.0921ZM320.113 40.054C320.113 38.8416 320.358 37.7807 320.849 36.8715C321.34 35.9477 322.011 35.2333 322.863 34.7281C323.729 34.223 324.696 33.9704 325.764 33.9704C326.687 33.9704 327.546 34.1869 328.34 34.6199C329.134 35.0384 329.74 35.5941 330.159 36.2869V30.0085H332.15V46.0293H330.159V43.7994C329.769 44.5066 329.192 45.0911 328.427 45.553C327.662 46.0004 326.767 46.2241 325.742 46.2241C324.688 46.2241 323.729 45.9643 322.863 45.4448C322.011 44.9252 321.34 44.1963 320.849 43.2581C320.358 42.32 320.113 41.2519 320.113 40.054ZM330.159 40.0756C330.159 39.1808 329.978 38.4014 329.617 37.7374C329.256 37.0735 328.766 36.5684 328.145 36.222C327.539 35.8611 326.868 35.6807 326.132 35.6807C325.396 35.6807 324.724 35.8539 324.118 36.2003C323.512 36.5467 323.029 37.0519 322.668 37.7158C322.307 38.3797 322.127 39.1591 322.127 40.054C322.127 40.9633 322.307 41.7571 322.668 42.4354C323.029 43.0994 323.512 43.6117 324.118 43.9726C324.724 44.319 325.396 44.4922 326.132 44.4922C326.868 44.4922 327.539 44.319 328.145 43.9726C328.766 43.6117 329.256 43.0994 329.617 42.4354C329.978 41.7571 330.159 40.9705 330.159 40.0756ZM346.426 46.2241C345.314 46.2241 344.304 45.9716 343.395 45.4664C342.5 44.9612 341.793 44.2468 341.273 43.3231C340.768 42.3849 340.515 41.3024 340.515 40.0756C340.515 38.8632 340.775 37.7952 341.295 36.8715C341.829 35.9333 342.551 35.2189 343.46 34.7281C344.369 34.223 345.387 33.9704 346.512 33.9704C347.638 33.9704 348.656 34.223 349.565 34.7281C350.474 35.2189 351.189 35.9261 351.708 36.8498C352.242 37.7735 352.509 38.8488 352.509 40.0756C352.509 41.3024 352.235 42.3849 351.687 43.3231C351.153 44.2468 350.424 44.9612 349.5 45.4664C348.576 45.9716 347.552 46.2241 346.426 46.2241ZM346.426 44.4922C347.133 44.4922 347.797 44.3262 348.418 43.9942C349.038 43.6623 349.536 43.1643 349.911 42.5004C350.301 41.8365 350.496 41.0282 350.496 40.0756C350.496 39.123 350.308 38.3148 349.933 37.6508C349.558 36.9869 349.067 36.4962 348.461 36.1787C347.855 35.8467 347.198 35.6807 346.491 35.6807C345.769 35.6807 345.105 35.8467 344.499 36.1787C343.907 36.4962 343.431 36.9869 343.07 37.6508C342.709 38.3148 342.529 39.123 342.529 40.0756C342.529 41.0426 342.702 41.8581 343.048 42.522C343.409 43.186 343.886 43.6839 344.477 44.0159C345.069 44.3334 345.719 44.4922 346.426 44.4922ZM357.07 36.0921C357.416 35.4137 357.907 34.8869 358.542 34.5116C359.192 34.1364 359.978 33.9487 360.902 33.9487V35.9838H360.382C358.174 35.9838 357.07 37.1818 357.07 39.5777V46.0293H355.1V34.1652H357.07V36.0921ZM379.037 35.356C379.037 36.6117 378.604 37.6581 377.738 38.4952C376.886 39.3179 375.58 39.7292 373.819 39.7292H370.918V46.0293H368.948V30.9394H373.819C375.522 30.9394 376.814 31.3508 377.694 32.1735C378.589 32.9962 379.037 34.057 379.037 35.356ZM373.819 38.1055C374.916 38.1055 375.724 37.8673 376.244 37.3911C376.764 36.9148 377.023 36.2364 377.023 35.356C377.023 33.4941 375.955 32.5632 373.819 32.5632H370.918V38.1055H373.819ZM380.749 40.054C380.749 38.8416 380.995 37.7807 381.485 36.8715C381.976 35.9477 382.647 35.2333 383.499 34.7281C384.365 34.223 385.325 33.9704 386.378 33.9704C387.417 33.9704 388.319 34.1941 389.084 34.6415C389.849 35.089 390.419 35.6519 390.795 36.3302V34.1652H392.787V46.0293H390.795V43.821C390.405 44.5138 389.821 45.0911 389.041 45.553C388.276 46.0004 387.381 46.2241 386.357 46.2241C385.303 46.2241 384.35 45.9643 383.499 45.4448C382.647 44.9252 381.976 44.1963 381.485 43.2581C380.995 42.32 380.749 41.2519 380.749 40.054ZM390.795 40.0756C390.795 39.1808 390.614 38.4014 390.254 37.7374C389.893 37.0735 389.402 36.5684 388.781 36.222C388.175 35.8611 387.504 35.6807 386.768 35.6807C386.032 35.6807 385.361 35.8539 384.754 36.2003C384.148 36.5467 383.665 37.0519 383.304 37.7158C382.943 38.3797 382.763 39.1591 382.763 40.054C382.763 40.9633 382.943 41.7571 383.304 42.4354C383.665 43.0994 384.148 43.6117 384.754 43.9726C385.361 44.319 386.032 44.4922 386.768 44.4922C387.504 44.4922 388.175 44.319 388.781 43.9726C389.402 43.6117 389.893 43.0994 390.254 42.4354C390.614 41.7571 390.795 40.9705 390.795 40.0756ZM400.316 46.2241C399.407 46.2241 398.591 46.0726 397.869 45.7695C397.148 45.452 396.578 45.019 396.159 44.4705C395.741 43.9076 395.51 43.2653 395.466 42.5437H397.501C397.559 43.1354 397.833 43.619 398.324 43.9942C398.829 44.3695 399.486 44.5571 400.294 44.5571C401.045 44.5571 401.637 44.3911 402.07 44.0592C402.503 43.7272 402.719 43.3086 402.719 42.8035C402.719 42.2839 402.488 41.9014 402.026 41.656C401.564 41.3963 400.85 41.1437 399.883 40.8983C399.002 40.6674 398.281 40.4364 397.718 40.2055C397.169 39.9602 396.693 39.6065 396.289 39.1447C395.899 38.6684 395.705 38.0478 395.705 37.2828C395.705 36.6766 395.885 36.1209 396.246 35.6158C396.607 35.1106 397.119 34.7137 397.783 34.425C398.447 34.1219 399.205 33.9704 400.056 33.9704C401.37 33.9704 402.43 34.3024 403.239 34.9663C404.047 35.6302 404.48 36.5395 404.538 37.6941H402.567C402.524 37.0735 402.272 36.5756 401.81 36.2003C401.362 35.8251 400.756 35.6374 399.991 35.6374C399.284 35.6374 398.721 35.789 398.302 36.0921C397.884 36.3952 397.675 36.7921 397.675 37.2828C397.675 37.6725 397.797 37.9972 398.043 38.257C398.302 38.5024 398.62 38.7045 398.995 38.8632C399.385 39.0076 399.919 39.1735 400.597 39.3612C401.449 39.5921 402.142 39.823 402.676 40.054C403.21 40.2705 403.664 40.6024 404.04 41.0499C404.429 41.4973 404.631 42.0818 404.646 42.8035C404.646 43.453 404.465 44.0375 404.105 44.5571C403.744 45.0767 403.231 45.4881 402.567 45.7911C401.918 46.0798 401.167 46.2241 400.316 46.2241ZM411.627 46.2241C410.718 46.2241 409.902 46.0726 409.181 45.7695C408.459 45.452 407.889 45.019 407.47 44.4705C407.052 43.9076 406.821 43.2653 406.777 42.5437H408.813C408.87 43.1354 409.145 43.619 409.635 43.9942C410.14 44.3695 410.797 44.5571 411.605 44.5571C412.356 44.5571 412.948 44.3911 413.381 44.0592C413.814 43.7272 414.03 43.3086 414.03 42.8035C414.03 42.2839 413.799 41.9014 413.337 41.656C412.875 41.3963 412.161 41.1437 411.194 40.8983C410.314 40.6674 409.592 40.4364 409.029 40.2055C408.481 39.9602 408.004 39.6065 407.6 39.1447C407.21 38.6684 407.016 38.0478 407.016 37.2828C407.016 36.6766 407.196 36.1209 407.557 35.6158C407.918 35.1106 408.43 34.7137 409.094 34.425C409.758 34.1219 410.516 33.9704 411.367 33.9704C412.681 33.9704 413.741 34.3024 414.55 34.9663C415.358 35.6302 415.791 36.5395 415.849 37.6941H413.879C413.835 37.0735 413.583 36.5756 413.121 36.2003C412.673 35.8251 412.067 35.6374 411.302 35.6374C410.595 35.6374 410.032 35.789 409.614 36.0921C409.195 36.3952 408.986 36.7921 408.986 37.2828C408.986 37.6725 409.108 37.9972 409.354 38.257C409.614 38.5024 409.931 38.7045 410.306 38.8632C410.696 39.0076 411.23 39.1735 411.908 39.3612C412.76 39.5921 413.453 39.823 413.987 40.054C414.521 40.2705 414.976 40.6024 415.351 41.0499C415.74 41.4973 415.943 42.0818 415.957 42.8035C415.957 43.453 415.777 44.0375 415.416 44.5571C415.055 45.0767 414.543 45.4881 413.879 45.7911C413.229 46.0798 412.479 46.2241 411.627 46.2241ZM420.708 36.3519C421.098 35.6735 421.675 35.1106 422.44 34.6632C423.22 34.2013 424.122 33.9704 425.146 33.9704C426.2 33.9704 427.153 34.223 428.004 34.7281C428.87 35.2333 429.549 35.9477 430.039 36.8715C430.53 37.7807 430.775 38.8416 430.775 40.054C430.775 41.2519 430.53 42.32 430.039 43.2581C429.549 44.1963 428.87 44.9252 428.004 45.4448C427.153 45.9643 426.2 46.2241 425.146 46.2241C424.136 46.2241 423.241 46.0004 422.462 45.553C421.697 45.0911 421.112 44.521 420.708 43.8427V51.6582H418.738V34.1652H420.708V36.3519ZM428.762 40.054C428.762 39.1591 428.582 38.3797 428.221 37.7158C427.86 37.0519 427.369 36.5467 426.749 36.2003C426.142 35.8539 425.471 35.6807 424.735 35.6807C424.013 35.6807 423.342 35.8611 422.722 36.222C422.115 36.5684 421.625 37.0807 421.25 37.7591C420.889 38.423 420.708 39.1952 420.708 40.0756C420.708 40.9705 420.889 41.7571 421.25 42.4354C421.625 43.0994 422.115 43.6117 422.722 43.9726C423.342 44.319 424.013 44.4922 424.735 44.4922C425.471 44.4922 426.142 44.319 426.749 43.9726C427.369 43.6117 427.86 43.0994 428.221 42.4354C428.582 41.7571 428.762 40.9633 428.762 40.054ZM438.543 46.2241C437.432 46.2241 436.421 45.9716 435.512 45.4664C434.617 44.9612 433.91 44.2468 433.39 43.3231C432.885 42.3849 432.633 41.3024 432.633 40.0756C432.633 38.8632 432.892 37.7952 433.412 36.8715C433.946 35.9333 434.668 35.2189 435.577 34.7281C436.486 34.223 437.504 33.9704 438.629 33.9704C439.755 33.9704 440.773 34.223 441.682 34.7281C442.591 35.2189 443.306 35.9261 443.825 36.8498C444.359 37.7735 444.626 38.8488 444.626 40.0756C444.626 41.3024 444.352 42.3849 443.804 43.3231C443.27 44.2468 442.541 44.9612 441.617 45.4664C440.693 45.9716 439.669 46.2241 438.543 46.2241ZM438.543 44.4922C439.25 44.4922 439.914 44.3262 440.535 43.9942C441.155 43.6623 441.653 43.1643 442.028 42.5004C442.418 41.8365 442.613 41.0282 442.613 40.0756C442.613 39.123 442.425 38.3148 442.05 37.6508C441.675 36.9869 441.184 36.4962 440.578 36.1787C439.972 35.8467 439.315 35.6807 438.608 35.6807C437.886 35.6807 437.222 35.8467 436.616 36.1787C436.024 36.4962 435.548 36.9869 435.187 37.6508C434.826 38.3148 434.646 39.123 434.646 40.0756C434.646 41.0426 434.819 41.8581 435.166 42.522C435.526 43.186 436.003 43.6839 436.594 44.0159C437.186 44.3334 437.836 44.4922 438.543 44.4922ZM449.187 36.0921C449.533 35.4137 450.024 34.8869 450.659 34.5116C451.309 34.1364 452.095 33.9487 453.019 33.9487V35.9838H452.499C450.291 35.9838 449.187 37.1818 449.187 39.5777V46.0293H447.217V34.1652H449.187V36.0921ZM457.696 35.789V42.7818C457.696 43.3592 457.819 43.7705 458.064 44.0159C458.31 44.2468 458.735 44.3623 459.342 44.3623H460.792V46.0293H459.017C457.92 46.0293 457.097 45.7767 456.549 45.2716C456 44.7664 455.726 43.9365 455.726 42.7818V35.789H454.189V34.1652H455.726V31.1776H457.696V34.1652H460.792V35.789H457.696Z" fill="#1FB4AB"/>
<g clip-path="url(#clip0_271_128)">
<path d="M47.5 13H36C25.1584 13 19.7361 13 16.3695 16.3695C13.0029 19.739 13 25.1584 13 36V38.875C13 49.7166 13 55.1389 16.3695 58.5055C19.739 61.8721 25.1584 61.875 36 61.875H47.5C58.3416 61.875 63.7639 61.875 67.1305 58.5055C70.4971 55.136 70.5 49.7166 70.5 38.875V36C70.5 25.1584 70.5 19.7361 67.1305 16.3695C63.761 13.0029 58.3416 13 47.5 13Z" stroke="#1FB4AB" stroke-width="4.3125" stroke-linecap="round" stroke-linejoin="round"/>
<path d="M21.625 48.9375C24.6035 41.5171 35.701 41.0312 38.875 48.9375M47.5 27.375H61.875M47.5 37.4375H61.875M47.5 47.5H54.6875M35.2812 30.9688C35.2812 32.3031 34.7512 33.5828 33.8076 34.5264C32.8641 35.4699 31.5844 36 30.25 36C28.9156 36 27.6359 35.4699 26.6924 34.5264C25.7488 33.5828 25.2188 32.3031 25.2188 30.9688C25.2188 29.6344 25.7488 28.3547 26.6924 27.4111C27.6359 26.4676 28.9156 25.9375 30.25 25.9375C31.5844 25.9375 32.8641 26.4676 33.8076 27.4111C34.7512 28.3547 35.2812 29.6344 35.2812 30.9688Z" stroke="#1FB4AB" stroke-width="4.3125" stroke-linecap="round" stroke-linejoin="round"/>
</g>
<defs>
<clipPath id="clip0_271_128">
<rect width="71" height="71" fill="white"/>
</clipPath>
</defs>
</svg>
