<svg width="57" height="57" viewBox="0 0 57 57" fill="none" xmlns="http://www.w3.org/2000/svg">
<path d="M30.2096 24.7008H30.2191M27.8346 37.0508H21.6596C20.9037 37.0508 20.1788 36.7505 19.6443 36.2161C19.1098 35.6816 18.8096 34.9567 18.8096 34.2008V22.8008C18.8096 22.0449 19.1098 21.32 19.6443 20.7856C20.1788 20.2511 20.9037 19.9508 21.6596 19.9508H33.0596C33.8154 19.9508 34.5403 20.2511 35.0748 20.7856C35.6093 21.32 35.9096 22.0449 35.9096 22.8008V28.9758" stroke="#1FB4AB" stroke-width="1.9" stroke-linecap="round" stroke-linejoin="round"/>
<path d="M18.8096 32.3014L23.5596 27.5514C24.4412 26.703 25.528 26.703 26.4096 27.5514L30.2096 31.3514" stroke="#1FB4AB" stroke-width="1.9" stroke-linecap="round" stroke-linejoin="round"/>
<path d="M29.2627 30.3985L30.2127 29.4485C30.833 28.851 31.555 28.6743 32.2362 28.9175M34.0127 32.2985V37.9985M34.0127 37.9985L36.8627 35.1485M34.0127 37.9985L31.1627 35.1485" stroke="#1FB4AB" stroke-width="1.9" stroke-linecap="round" stroke-linejoin="round"/>
<circle cx="28.5" cy="28.5" r="28" stroke="#1FB4AB"/>
</svg>
