<svg width="489" height="71" viewBox="0 0 489 71" fill="none" xmlns="http://www.w3.org/2000/svg">
<path d="M113.594 30.9394V40.487C113.594 41.8292 113.919 42.8251 114.568 43.4746C115.232 44.1241 116.149 44.4489 117.318 44.4489C118.472 44.4489 119.374 44.1241 120.024 43.4746C120.688 42.8251 121.02 41.8292 121.02 40.487V30.9394H122.99V40.4653C122.99 41.721 122.737 42.7818 122.232 43.6478C121.727 44.4994 121.041 45.1344 120.175 45.553C119.324 45.9716 118.364 46.1808 117.296 46.1808C116.228 46.1808 115.261 45.9716 114.395 45.553C113.543 45.1344 112.865 44.4994 112.36 43.6478C111.869 42.7818 111.624 41.721 111.624 40.4653V30.9394H113.594ZM128.247 36.3519C128.636 35.6735 129.214 35.1106 129.978 34.6632C130.758 34.2013 131.66 33.9704 132.685 33.9704C133.738 33.9704 134.691 34.223 135.542 34.7281C136.408 35.2333 137.087 35.9477 137.578 36.8715C138.068 37.7807 138.314 38.8416 138.314 40.054C138.314 41.2519 138.068 42.32 137.578 43.2581C137.087 44.1963 136.408 44.9252 135.542 45.4448C134.691 45.9643 133.738 46.2241 132.685 46.2241C131.674 46.2241 130.78 46.0004 130 45.553C129.235 45.0911 128.651 44.521 128.247 43.8427V51.6582H126.276V34.1652H128.247V36.3519ZM136.3 40.054C136.3 39.1591 136.12 38.3797 135.759 37.7158C135.398 37.0519 134.907 36.5467 134.287 36.2003C133.681 35.8539 133.009 35.6807 132.273 35.6807C131.552 35.6807 130.881 35.8611 130.26 36.222C129.654 36.5684 129.163 37.0807 128.788 37.7591C128.427 38.423 128.247 39.1952 128.247 40.0756C128.247 40.9705 128.427 41.7571 128.788 42.4354C129.163 43.0994 129.654 43.6117 130.26 43.9726C130.881 44.319 131.552 44.4922 132.273 44.4922C133.009 44.4922 133.681 44.319 134.287 43.9726C134.907 43.6117 135.398 43.0994 135.759 42.4354C136.12 41.7571 136.3 40.9633 136.3 40.054ZM142.877 30.0085V46.0293H140.907V30.0085H142.877ZM151.409 46.2241C150.298 46.2241 149.287 45.9716 148.378 45.4664C147.483 44.9612 146.776 44.2468 146.256 43.3231C145.751 42.3849 145.499 41.3024 145.499 40.0756C145.499 38.8632 145.758 37.7952 146.278 36.8715C146.812 35.9333 147.534 35.2189 148.443 34.7281C149.352 34.223 150.37 33.9704 151.496 33.9704C152.621 33.9704 153.639 34.223 154.548 34.7281C155.458 35.2189 156.172 35.9261 156.692 36.8498C157.226 37.7735 157.493 38.8488 157.493 40.0756C157.493 41.3024 157.218 42.3849 156.67 43.3231C156.136 44.2468 155.407 44.9612 154.483 45.4664C153.56 45.9716 152.535 46.2241 151.409 46.2241ZM151.409 44.4922C152.116 44.4922 152.78 44.3262 153.401 43.9942C154.021 43.6623 154.519 43.1643 154.895 42.5004C155.284 41.8365 155.479 41.0282 155.479 40.0756C155.479 39.123 155.292 38.3148 154.916 37.6508C154.541 36.9869 154.05 36.4962 153.444 36.1787C152.838 35.8467 152.181 35.6807 151.474 35.6807C150.752 35.6807 150.088 35.8467 149.482 36.1787C148.89 36.4962 148.414 36.9869 148.053 37.6508C147.692 38.3148 147.512 39.123 147.512 40.0756C147.512 41.0426 147.685 41.8581 148.032 42.522C148.392 43.186 148.869 43.6839 149.461 44.0159C150.052 44.3334 150.702 44.4922 151.409 44.4922ZM159.347 40.054C159.347 38.8416 159.592 37.7807 160.083 36.8715C160.574 35.9477 161.245 35.2333 162.096 34.7281C162.962 34.223 163.922 33.9704 164.976 33.9704C166.015 33.9704 166.917 34.1941 167.682 34.6415C168.447 35.089 169.017 35.6519 169.392 36.3302V34.1652H171.384V46.0293H169.392V43.821C169.003 44.5138 168.418 45.0911 167.639 45.553C166.874 46.0004 165.979 46.2241 164.954 46.2241C163.901 46.2241 162.948 45.9643 162.096 45.4448C161.245 44.9252 160.574 44.1963 160.083 43.2581C159.592 42.32 159.347 41.2519 159.347 40.054ZM169.392 40.0756C169.392 39.1808 169.212 38.4014 168.851 37.7374C168.49 37.0735 168 36.5684 167.379 36.222C166.773 35.8611 166.102 35.6807 165.365 35.6807C164.629 35.6807 163.958 35.8539 163.352 36.2003C162.746 36.5467 162.262 37.0519 161.902 37.7158C161.541 38.3797 161.36 39.1591 161.36 40.054C161.36 40.9633 161.541 41.7571 161.902 42.4354C162.262 43.0994 162.746 43.6117 163.352 43.9726C163.958 44.319 164.629 44.4922 165.365 44.4922C166.102 44.4922 166.773 44.319 167.379 43.9726C168 43.6117 168.49 43.0994 168.851 42.4354C169.212 41.7571 169.392 40.9705 169.392 40.0756ZM173.977 40.054C173.977 38.8416 174.223 37.7807 174.713 36.8715C175.204 35.9477 175.875 35.2333 176.727 34.7281C177.593 34.223 178.56 33.9704 179.628 33.9704C180.552 33.9704 181.41 34.1869 182.204 34.6199C182.998 35.0384 183.604 35.5941 184.023 36.2869V30.0085H186.015V46.0293H184.023V43.7994C183.633 44.5066 183.056 45.0911 182.291 45.553C181.526 46.0004 180.631 46.2241 179.606 46.2241C178.553 46.2241 177.593 45.9643 176.727 45.4448C175.875 44.9252 175.204 44.1963 174.713 43.2581C174.223 42.32 173.977 41.2519 173.977 40.054ZM184.023 40.0756C184.023 39.1808 183.842 38.4014 183.482 37.7374C183.121 37.0735 182.63 36.5684 182.009 36.222C181.403 35.8611 180.732 35.6807 179.996 35.6807C179.26 35.6807 178.589 35.8539 177.983 36.2003C177.376 36.5467 176.893 37.0519 176.532 37.7158C176.171 38.3797 175.991 39.1591 175.991 40.054C175.991 40.9633 176.171 41.7571 176.532 42.4354C176.893 43.0994 177.376 43.6117 177.983 43.9726C178.589 44.319 179.26 44.4922 179.996 44.4922C180.732 44.4922 181.403 44.319 182.009 43.9726C182.63 43.6117 183.121 43.0994 183.482 42.4354C183.842 41.7571 184.023 40.9705 184.023 40.0756ZM205.334 34.1652L198.19 51.6149H196.155L198.493 45.8994L193.709 34.1652H195.895L199.619 43.7777L203.299 34.1652H205.334ZM212.489 46.2241C211.378 46.2241 210.368 45.9716 209.458 45.4664C208.563 44.9612 207.856 44.2468 207.337 43.3231C206.831 42.3849 206.579 41.3024 206.579 40.0756C206.579 38.8632 206.839 37.7952 207.358 36.8715C207.892 35.9333 208.614 35.2189 209.523 34.7281C210.432 34.223 211.45 33.9704 212.576 33.9704C213.702 33.9704 214.719 34.223 215.628 34.7281C216.538 35.2189 217.252 35.9261 217.772 36.8498C218.306 37.7735 218.573 38.8488 218.573 40.0756C218.573 41.3024 218.299 42.3849 217.75 43.3231C217.216 44.2468 216.487 44.9612 215.563 45.4664C214.64 45.9716 213.615 46.2241 212.489 46.2241ZM212.489 44.4922C213.196 44.4922 213.86 44.3262 214.481 43.9942C215.102 43.6623 215.6 43.1643 215.975 42.5004C216.364 41.8365 216.559 41.0282 216.559 40.0756C216.559 39.123 216.372 38.3148 215.996 37.6508C215.621 36.9869 215.13 36.4962 214.524 36.1787C213.918 35.8467 213.261 35.6807 212.554 35.6807C211.832 35.6807 211.169 35.8467 210.562 36.1787C209.971 36.4962 209.494 36.9869 209.133 37.6508C208.773 38.3148 208.592 39.123 208.592 40.0756C208.592 41.0426 208.765 41.8581 209.112 42.522C209.473 43.186 209.949 43.6839 210.541 44.0159C211.132 44.3334 211.782 44.4922 212.489 44.4922ZM231.685 34.1652V46.0293H229.715V44.2757C229.34 44.8819 228.813 45.3582 228.134 45.7046C227.47 46.0365 226.734 46.2025 225.926 46.2025C225.002 46.2025 224.172 46.0149 223.436 45.6396C222.7 45.2499 222.116 44.6726 221.683 43.9076C221.264 43.1427 221.055 42.2117 221.055 41.1148V34.1652H223.003V40.855C223.003 42.0241 223.299 42.9262 223.891 43.5612C224.483 44.1819 225.291 44.4922 226.316 44.4922C227.369 44.4922 228.199 44.1674 228.805 43.5179C229.412 42.8684 229.715 41.9231 229.715 40.6818V34.1652H231.685ZM236.981 36.0921C237.328 35.4137 237.819 34.8869 238.454 34.5116C239.103 34.1364 239.89 33.9487 240.813 33.9487V35.9838H240.294C238.086 35.9838 236.981 37.1818 236.981 39.5777V46.0293H235.011V34.1652H236.981V36.0921ZM253.687 35.789H251.198V46.0293H249.228V35.789H247.69V34.1652H249.228V33.3209C249.228 31.993 249.567 31.026 250.245 30.4198C250.938 29.7992 252.042 29.4889 253.558 29.4889V31.1343C252.692 31.1343 252.078 31.3075 251.717 31.6539C251.371 31.9858 251.198 32.5415 251.198 33.3209V34.1652H253.687V35.789ZM255.248 40.054C255.248 38.8416 255.494 37.7807 255.985 36.8715C256.475 35.9477 257.146 35.2333 257.998 34.7281C258.864 34.223 259.824 33.9704 260.877 33.9704C261.917 33.9704 262.819 34.1941 263.584 34.6415C264.349 35.089 264.919 35.6519 265.294 36.3302V34.1652H267.286V46.0293H265.294V43.821C264.904 44.5138 264.32 45.0911 263.54 45.553C262.775 46.0004 261.88 46.2241 260.856 46.2241C259.802 46.2241 258.85 45.9643 257.998 45.4448C257.146 44.9252 256.475 44.1963 255.985 43.2581C255.494 42.32 255.248 41.2519 255.248 40.054ZM265.294 40.0756C265.294 39.1808 265.113 38.4014 264.753 37.7374C264.392 37.0735 263.901 36.5684 263.28 36.222C262.674 35.8611 262.003 35.6807 261.267 35.6807C260.531 35.6807 259.86 35.8539 259.254 36.2003C258.647 36.5467 258.164 37.0519 257.803 37.7158C257.442 38.3797 257.262 39.1591 257.262 40.054C257.262 40.9633 257.442 41.7571 257.803 42.4354C258.164 43.0994 258.647 43.6117 259.254 43.9726C259.86 44.319 260.531 44.4922 261.267 44.4922C262.003 44.4922 262.674 44.319 263.28 43.9726C263.901 43.6117 264.392 43.0994 264.753 42.4354C265.113 41.7571 265.294 40.9705 265.294 40.0756ZM269.879 40.0756C269.879 38.8488 270.124 37.7807 270.615 36.8715C271.106 35.9477 271.784 35.2333 272.65 34.7281C273.531 34.223 274.534 33.9704 275.659 33.9704C277.117 33.9704 278.315 34.324 279.253 35.0312C280.206 35.7385 280.834 36.7199 281.137 37.9756H279.015C278.813 37.2539 278.416 36.6838 277.824 36.2653C277.247 35.8467 276.525 35.6374 275.659 35.6374C274.534 35.6374 273.624 36.0271 272.932 36.8065C272.239 37.5715 271.892 38.6612 271.892 40.0756C271.892 41.5045 272.239 42.6086 272.932 43.388C273.624 44.1674 274.534 44.5571 275.659 44.5571C276.525 44.5571 277.247 44.3551 277.824 43.9509C278.402 43.5468 278.799 42.9695 279.015 42.2189H281.137C280.819 43.4313 280.184 44.4056 279.232 45.1417C278.279 45.8633 277.088 46.2241 275.659 46.2241C274.534 46.2241 273.531 45.9716 272.65 45.4664C271.784 44.9612 271.106 44.2468 270.615 43.3231C270.124 42.3994 269.879 41.3169 269.879 40.0756ZM294.59 39.6426C294.59 40.0179 294.569 40.4148 294.525 40.8334H285.043C285.115 42.0024 285.512 42.919 286.234 43.5829C286.97 44.2324 287.857 44.5571 288.897 44.5571C289.748 44.5571 290.455 44.3623 291.018 43.9726C291.596 43.5684 292 43.0344 292.231 42.3705H294.352C294.035 43.5107 293.4 44.4416 292.447 45.1633C291.494 45.8705 290.311 46.2241 288.897 46.2241C287.771 46.2241 286.76 45.9716 285.866 45.4664C284.985 44.9612 284.292 44.2468 283.787 43.3231C283.282 42.3849 283.029 41.3024 283.029 40.0756C283.029 38.8488 283.275 37.7735 283.766 36.8498C284.256 35.9261 284.942 35.2189 285.822 34.7281C286.717 34.223 287.742 33.9704 288.897 33.9704C290.022 33.9704 291.018 34.2158 291.884 34.7065C292.75 35.1972 293.414 35.8756 293.876 36.7416C294.352 37.5931 294.59 38.5601 294.59 39.6426ZM292.555 39.2313C292.555 38.4808 292.389 37.8385 292.057 37.3045C291.725 36.756 291.271 36.3446 290.693 36.0704C290.131 35.7818 289.503 35.6374 288.81 35.6374C287.814 35.6374 286.962 35.955 286.255 36.59C285.562 37.2251 285.166 38.1055 285.065 39.2313H292.555ZM318.767 34.1652L315.065 46.0293H313.03L310.172 36.6117L307.314 46.0293H305.279L301.556 34.1652H303.569L306.297 44.1241L309.241 34.1652H311.255L314.134 44.1458L316.819 34.1652H318.767ZM321.74 32.2384C321.365 32.2384 321.047 32.1085 320.787 31.8487C320.527 31.5889 320.398 31.2714 320.398 30.8961C320.398 30.5209 320.527 30.2033 320.787 29.9435C321.047 29.6837 321.365 29.5538 321.74 29.5538C322.101 29.5538 322.404 29.6837 322.649 29.9435C322.909 30.2033 323.039 30.5209 323.039 30.8961C323.039 31.2714 322.909 31.5889 322.649 31.8487C322.404 32.1085 322.101 32.2384 321.74 32.2384ZM322.692 34.1652V46.0293H320.722V34.1652H322.692ZM328.453 35.789V42.7818C328.453 43.3592 328.576 43.7705 328.821 44.0159C329.067 44.2468 329.492 44.3623 330.099 44.3623H331.549V46.0293H329.774C328.677 46.0293 327.854 45.7767 327.306 45.2716C326.757 44.7664 326.483 43.9365 326.483 42.7818V35.789H324.946V34.1652H326.483V31.1776H328.453V34.1652H331.549V35.789H328.453ZM339.825 33.9487C340.72 33.9487 341.528 34.1436 342.25 34.5333C342.971 34.9085 343.534 35.4787 343.938 36.2436C344.357 37.0086 344.566 37.9395 344.566 39.0364V46.0293H342.618V39.3179C342.618 38.1344 342.322 37.2323 341.73 36.6117C341.138 35.9766 340.33 35.6591 339.305 35.6591C338.266 35.6591 337.436 35.9838 336.816 36.6333C336.209 37.2828 335.906 38.2282 335.906 39.4694V46.0293H333.936V30.0085H335.906V35.8539C336.296 35.2477 336.83 34.7786 337.508 34.4467C338.201 34.1147 338.973 33.9487 339.825 33.9487ZM354.574 32.2384C354.199 32.2384 353.881 32.1085 353.621 31.8487C353.361 31.5889 353.232 31.2714 353.232 30.8961C353.232 30.5209 353.361 30.2033 353.621 29.9435C353.881 29.6837 354.199 29.5538 354.574 29.5538C354.935 29.5538 355.238 29.6837 355.483 29.9435C355.743 30.2033 355.873 30.5209 355.873 30.8961C355.873 31.2714 355.743 31.5889 355.483 31.8487C355.238 32.1085 354.935 32.2384 354.574 32.2384ZM355.526 34.1652V46.0293H353.556V34.1652H355.526ZM358.148 40.054C358.148 38.8416 358.393 37.7807 358.884 36.8715C359.375 35.9477 360.046 35.2333 360.898 34.7281C361.764 34.223 362.731 33.9704 363.799 33.9704C364.722 33.9704 365.581 34.1869 366.375 34.6199C367.169 35.0384 367.775 35.5941 368.194 36.2869V30.0085H370.185V46.0293H368.194V43.7994C367.804 44.5066 367.227 45.0911 366.462 45.553C365.697 46.0004 364.802 46.2241 363.777 46.2241C362.723 46.2241 361.764 45.9643 360.898 45.4448C360.046 44.9252 359.375 44.1963 358.884 43.2581C358.393 42.32 358.148 41.2519 358.148 40.054ZM368.194 40.0756C368.194 39.1808 368.013 38.4014 367.652 37.7374C367.292 37.0735 366.801 36.5684 366.18 36.222C365.574 35.8611 364.903 35.6807 364.167 35.6807C363.431 35.6807 362.76 35.8539 362.153 36.2003C361.547 36.5467 361.064 37.0519 360.703 37.7158C360.342 38.3797 360.162 39.1591 360.162 40.054C360.162 40.9633 360.342 41.7571 360.703 42.4354C361.064 43.0994 361.547 43.6117 362.153 43.9726C362.76 44.319 363.431 44.4922 364.167 44.4922C364.903 44.4922 365.574 44.319 366.18 43.9726C366.801 43.6117 367.292 43.0994 367.652 42.4354C368.013 41.7571 368.194 40.9705 368.194 40.0756ZM384.34 39.6426C384.34 40.0179 384.318 40.4148 384.275 40.8334H374.792C374.864 42.0024 375.261 42.919 375.983 43.5829C376.719 44.2324 377.606 44.5571 378.646 44.5571C379.497 44.5571 380.204 44.3623 380.767 43.9726C381.345 43.5684 381.749 43.0344 381.98 42.3705H384.101C383.784 43.5107 383.149 44.4416 382.196 45.1633C381.244 45.8705 380.06 46.2241 378.646 46.2241C377.52 46.2241 376.51 45.9716 375.615 45.4664C374.734 44.9612 374.041 44.2468 373.536 43.3231C373.031 42.3849 372.779 41.3024 372.779 40.0756C372.779 38.8488 373.024 37.7735 373.515 36.8498C374.005 35.9261 374.691 35.2189 375.571 34.7281C376.466 34.223 377.491 33.9704 378.646 33.9704C379.771 33.9704 380.767 34.2158 381.633 34.7065C382.499 35.1972 383.163 35.8756 383.625 36.7416C384.101 37.5931 384.34 38.5601 384.34 39.6426ZM382.304 39.2313C382.304 38.4808 382.138 37.8385 381.807 37.3045C381.475 36.756 381.02 36.3446 380.443 36.0704C379.88 35.7818 379.252 35.6374 378.559 35.6374C377.563 35.6374 376.712 35.955 376.004 36.59C375.312 37.2251 374.915 38.1055 374.814 39.2313H382.304ZM392.721 33.9487C394.164 33.9487 395.333 34.389 396.228 35.2694C397.123 36.1354 397.57 37.3911 397.57 39.0364V46.0293H395.622V39.3179C395.622 38.1344 395.326 37.2323 394.734 36.6117C394.142 35.9766 393.334 35.6591 392.309 35.6591C391.27 35.6591 390.44 35.9838 389.819 36.6333C389.213 37.2828 388.91 38.2282 388.91 39.4694V46.0293H386.94V34.1652H388.91V35.8539C389.3 35.2477 389.827 34.7786 390.491 34.4467C391.169 34.1147 391.912 33.9487 392.721 33.9487ZM403.191 35.789V42.7818C403.191 43.3592 403.314 43.7705 403.559 44.0159C403.805 44.2468 404.231 44.3623 404.837 44.3623H406.287V46.0293H404.512C403.415 46.0293 402.592 45.7767 402.044 45.2716C401.496 44.7664 401.221 43.9365 401.221 42.7818V35.789H399.684V34.1652H401.221V31.1776H403.191V34.1652H406.287V35.789H403.191ZM409.692 32.2384C409.317 32.2384 408.999 32.1085 408.739 31.8487C408.48 31.5889 408.35 31.2714 408.35 30.8961C408.35 30.5209 408.48 30.2033 408.739 29.9435C408.999 29.6837 409.317 29.5538 409.692 29.5538C410.053 29.5538 410.356 29.6837 410.601 29.9435C410.861 30.2033 410.991 30.5209 410.991 30.8961C410.991 31.2714 410.861 31.5889 410.601 31.8487C410.356 32.1085 410.053 32.2384 409.692 32.2384ZM410.645 34.1652V46.0293H408.674V34.1652H410.645ZM416.405 35.789V42.7818C416.405 43.3592 416.528 43.7705 416.773 44.0159C417.019 44.2468 417.445 44.3623 418.051 44.3623H419.501V46.0293H417.726C416.629 46.0293 415.806 45.7767 415.258 45.2716C414.709 44.7664 414.435 43.9365 414.435 42.7818V35.789H412.898V34.1652H414.435V31.1776H416.405V34.1652H419.501V35.789H416.405ZM432.107 34.1652L424.963 51.6149H422.928L425.266 45.8994L420.481 34.1652H422.668L426.391 43.7777L430.072 34.1652H432.107ZM439.123 40.0756C439.123 38.8488 439.369 37.7807 439.859 36.8715C440.35 35.9477 441.028 35.2333 441.894 34.7281C442.775 34.223 443.778 33.9704 444.904 33.9704C446.361 33.9704 447.559 34.324 448.498 35.0312C449.45 35.7385 450.078 36.7199 450.381 37.9756H448.259C448.057 37.2539 447.66 36.6838 447.069 36.2653C446.491 35.8467 445.77 35.6374 444.904 35.6374C443.778 35.6374 442.869 36.0271 442.176 36.8065C441.483 37.5715 441.137 38.6612 441.137 40.0756C441.137 41.5045 441.483 42.6086 442.176 43.388C442.869 44.1674 443.778 44.5571 444.904 44.5571C445.77 44.5571 446.491 44.3551 447.069 43.9509C447.646 43.5468 448.043 42.9695 448.259 42.2189H450.381C450.064 43.4313 449.428 44.4056 448.476 45.1417C447.523 45.8633 446.333 46.2241 444.904 46.2241C443.778 46.2241 442.775 45.9716 441.894 45.4664C441.028 44.9612 440.35 44.2468 439.859 43.3231C439.369 42.3994 439.123 41.3169 439.123 40.0756ZM452.274 40.054C452.274 38.8416 452.519 37.7807 453.01 36.8715C453.501 35.9477 454.172 35.2333 455.023 34.7281C455.889 34.223 456.849 33.9704 457.903 33.9704C458.942 33.9704 459.844 34.1941 460.609 34.6415C461.374 35.089 461.944 35.6519 462.319 36.3302V34.1652H464.311V46.0293H462.319V43.821C461.93 44.5138 461.345 45.0911 460.566 45.553C459.801 46.0004 458.906 46.2241 457.881 46.2241C456.827 46.2241 455.875 45.9643 455.023 45.4448C454.172 44.9252 453.501 44.1963 453.01 43.2581C452.519 42.32 452.274 41.2519 452.274 40.054ZM462.319 40.0756C462.319 39.1808 462.139 38.4014 461.778 37.7374C461.417 37.0735 460.926 36.5684 460.306 36.222C459.7 35.8611 459.028 35.6807 458.292 35.6807C457.556 35.6807 456.885 35.8539 456.279 36.2003C455.673 36.5467 455.189 37.0519 454.828 37.7158C454.468 38.3797 454.287 39.1591 454.287 40.054C454.287 40.9633 454.468 41.7571 454.828 42.4354C455.189 43.0994 455.673 43.6117 456.279 43.9726C456.885 44.319 457.556 44.4922 458.292 44.4922C459.028 44.4922 459.7 44.319 460.306 43.9726C460.926 43.6117 461.417 43.0994 461.778 42.4354C462.139 41.7571 462.319 40.9705 462.319 40.0756ZM469.61 36.0921C469.957 35.4137 470.448 34.8869 471.083 34.5116C471.732 34.1364 472.519 33.9487 473.442 33.9487V35.9838H472.923C470.715 35.9838 469.61 37.1818 469.61 39.5777V46.0293H467.64V34.1652H469.61V36.0921ZM474.981 40.054C474.981 38.8416 475.226 37.7807 475.717 36.8715C476.207 35.9477 476.879 35.2333 477.73 34.7281C478.596 34.223 479.563 33.9704 480.631 33.9704C481.555 33.9704 482.414 34.1869 483.207 34.6199C484.001 35.0384 484.608 35.5941 485.026 36.2869V30.0085H487.018V46.0293H485.026V43.7994C484.636 44.5066 484.059 45.0911 483.294 45.553C482.529 46.0004 481.634 46.2241 480.61 46.2241C479.556 46.2241 478.596 45.9643 477.73 45.4448C476.879 44.9252 476.207 44.1963 475.717 43.2581C475.226 42.32 474.981 41.2519 474.981 40.054ZM485.026 40.0756C485.026 39.1808 484.846 38.4014 484.485 37.7374C484.124 37.0735 483.633 36.5684 483.013 36.222C482.406 35.8611 481.735 35.6807 480.999 35.6807C480.263 35.6807 479.592 35.8539 478.986 36.2003C478.38 36.5467 477.896 37.0519 477.535 37.7158C477.174 38.3797 476.994 39.1591 476.994 40.054C476.994 40.9633 477.174 41.7571 477.535 42.4354C477.896 43.0994 478.38 43.6117 478.986 43.9726C479.592 44.319 480.263 44.4922 480.999 44.4922C481.735 44.4922 482.406 44.319 483.013 43.9726C483.633 43.6117 484.124 43.0994 484.485 42.4354C484.846 41.7571 485.026 40.9705 485.026 40.0756Z" fill="#1FB4AB"/>
<path d="M35.4989 14.0521C34.6248 14.0521 33.7592 14.2243 32.9516 14.5588C32.1441 14.8933 31.4103 15.3836 30.7922 16.0017C30.1741 16.6198 29.6838 17.3536 29.3493 18.1611C29.0148 18.9687 28.8426 19.8343 28.8426 20.7084C28.8426 21.5825 29.0148 22.448 29.3493 23.2556C29.6838 24.0632 30.1741 24.797 30.7922 25.4151C31.4103 26.0331 32.1441 26.5234 32.9516 26.8579C33.7592 27.1925 34.6248 27.3646 35.4989 27.3646C37.2642 27.3646 38.9573 26.6633 40.2056 25.4151C41.4538 24.1668 42.1551 22.4737 42.1551 20.7084C42.1551 18.943 41.4538 17.25 40.2056 16.0017C38.9573 14.7534 37.2642 14.0521 35.4989 14.0521ZM24.4051 20.7084C24.4051 17.7661 25.5739 14.9444 27.6544 12.8639C29.7349 10.7834 32.5566 9.61462 35.4989 9.61462C38.4411 9.61462 41.2629 10.7834 43.3433 12.8639C45.4238 14.9444 46.5926 17.7661 46.5926 20.7084C46.5926 23.6506 45.4238 26.4724 43.3433 28.5528C41.2629 30.6333 38.4411 31.8021 35.4989 31.8021C32.5566 31.8021 29.7349 30.6333 27.6544 28.5528C25.5739 26.4724 24.4051 23.6506 24.4051 20.7084ZM27.5528 37.9229C27.9433 38.2128 28.4462 38.553 29.0468 38.8903C30.5644 39.7482 32.789 40.6357 35.4959 40.6357C38.2028 40.6357 40.4304 39.7482 41.948 38.8903C42.5486 38.553 43.0515 38.2128 43.442 37.9229C43.9982 38.0708 44.5494 38.2345 45.0957 38.414L47.9357 39.3459C50.0657 40.047 51.675 41.748 52.249 43.8514L53.4234 52.3241C53.6453 53.9334 52.8022 55.102 51.6307 55.38C48.5333 56.1196 43.3118 56.948 35.4989 56.948C27.6859 56.948 22.4615 56.1196 19.3641 55.38C18.1956 55.102 17.3525 53.9334 17.5714 52.3241L18.7458 43.8514C19.0377 42.8026 19.5845 41.8423 20.3376 41.0561C21.0907 40.27 22.0267 39.6824 23.062 39.3459L25.902 38.414C26.4464 38.2365 26.9966 38.0728 27.5528 37.9229ZM29.6532 33.9144L28.7923 33.0653L27.6031 33.3375C26.5657 33.5742 25.5362 33.8611 24.5146 34.1984L21.6746 35.1302C19.9103 35.7037 18.3196 36.714 17.0504 38.067C15.7811 39.42 14.8745 41.0719 14.4148 42.8692L14.3853 42.9876L13.1783 51.7147C12.702 55.1582 14.545 58.794 18.3376 59.6963C21.7988 60.5216 27.3664 61.3855 35.4959 61.3855C43.6284 61.3855 49.196 60.5216 52.6572 59.6992C56.4498 58.794 58.2958 55.1582 57.8195 51.7176L56.6095 42.9905L56.58 42.8722C56.1204 41.074 55.2136 39.4213 53.9438 38.0677C52.674 36.7141 51.0825 35.7036 49.3173 35.1302L46.4802 34.1984C45.4606 33.8631 44.4311 33.5771 43.3917 33.3405L42.2025 33.0653L41.3445 33.9114L41.3416 33.9144C41.2272 34.0186 41.1088 34.1182 40.9866 34.2132C40.6052 34.5162 40.1995 34.7873 39.7737 35.0237C38.4731 35.7754 37.001 36.1799 35.4989 36.1982C33.9968 36.1799 32.5247 35.7754 31.2241 35.0237C30.6652 34.7081 30.1369 34.3364 29.6532 33.9144Z" fill="#1FB4AB"/>
<path d="M61.8328 13.2086H58.1661C54.7093 13.2086 52.9805 13.2086 51.9071 14.283C50.8337 15.3573 50.8328 17.0852 50.8328 20.542V21.4586C50.8328 24.9154 50.8328 26.6442 51.9071 27.7176C52.9814 28.791 54.7093 28.792 58.1661 28.792H61.8328C65.2895 28.792 67.0183 28.792 68.0918 27.7176C69.1652 26.6433 69.1661 24.9154 69.1661 21.4586V20.542C69.1661 17.0852 69.1661 15.3564 68.0918 14.283C67.0174 13.2095 65.2895 13.2086 61.8328 13.2086Z" stroke="#1FB4AB" stroke-width="1.375" stroke-linecap="round" stroke-linejoin="round"/>
<path d="M53.5828 24.667C54.5324 22.301 58.0708 22.1461 59.0828 24.667M61.8328 17.792H66.4161M61.8328 21.0003H66.4161M61.8328 24.2086H64.1244M57.9369 18.9378C57.9369 19.3632 57.7679 19.7713 57.4671 20.0721C57.1662 20.3729 56.7582 20.542 56.3328 20.542C55.9073 20.542 55.4993 20.3729 55.1984 20.0721C54.8976 19.7713 54.7286 19.3632 54.7286 18.9378C54.7286 18.5123 54.8976 18.1043 55.1984 17.8035C55.4993 17.5026 55.9073 17.3336 56.3328 17.3336C56.7582 17.3336 57.1662 17.5026 57.4671 17.8035C57.7679 18.1043 57.9369 18.5123 57.9369 18.9378Z" stroke="#1FB4AB" stroke-width="1.375" stroke-linecap="round" stroke-linejoin="round"/>
</svg>
