<svg width="559" height="91" viewBox="0 0 559 91" fill="none" xmlns="http://www.w3.org/2000/svg">
<rect width="559" height="91" rx="9.69423" fill="#2979FF" fill-opacity="0.13"/>
<path d="M99.6644 38.2358V45.4646C99.6644 46.4809 99.9103 47.2349 100.402 47.7267C100.905 48.2184 101.599 48.4643 102.484 48.4643C103.358 48.4643 104.041 48.2184 104.533 47.7267C105.035 47.2349 105.287 46.4809 105.287 45.4646V38.2358H106.778V45.4482C106.778 46.3989 106.587 47.2021 106.205 47.8578C105.822 48.5025 105.303 48.9834 104.648 49.3003C104.003 49.6172 103.276 49.7756 102.467 49.7756C101.659 49.7756 100.927 49.6172 100.271 49.3003C99.6262 48.9834 99.1125 48.5025 98.7301 47.8578C98.3585 47.2021 98.1727 46.3989 98.1727 45.4482V38.2358H99.6644ZM110.758 42.3338C111.053 41.8201 111.491 41.394 112.07 41.0552C112.66 40.7055 113.343 40.5307 114.119 40.5307C114.916 40.5307 115.638 40.7219 116.282 41.1044C116.938 41.4868 117.452 42.0278 117.823 42.7272C118.195 43.4156 118.381 44.2188 118.381 45.1368C118.381 46.0438 118.195 46.8524 117.823 47.5627C117.452 48.273 116.938 48.8249 116.282 49.2183C115.638 49.6117 114.916 49.8084 114.119 49.8084C113.354 49.8084 112.676 49.639 112.086 49.3003C111.507 48.9506 111.064 48.5189 110.758 48.0053V53.9228H109.267V40.6782H110.758V42.3338ZM116.856 45.1368C116.856 44.4592 116.72 43.8691 116.446 43.3664C116.173 42.8638 115.802 42.4813 115.332 42.219C114.873 41.9567 114.365 41.8256 113.807 41.8256C113.261 41.8256 112.753 41.9622 112.283 42.2354C111.824 42.4977 111.452 42.8856 111.168 43.3992C110.895 43.9019 110.758 44.4865 110.758 45.1531C110.758 45.8307 110.895 46.4262 111.168 46.9399C111.452 47.4425 111.824 47.8305 112.283 48.1037C112.753 48.3659 113.261 48.4971 113.807 48.4971C114.365 48.4971 114.873 48.3659 115.332 48.1037C115.802 47.8305 116.173 47.4425 116.446 46.9399C116.72 46.4262 116.856 45.8252 116.856 45.1368ZM121.836 37.531V49.6609H120.344V37.531H121.836ZM128.296 49.8084C127.454 49.8084 126.689 49.6172 126.001 49.2347C125.323 48.8522 124.788 48.3113 124.394 47.6119C124.012 46.9016 123.821 46.082 123.821 45.1531C123.821 44.2352 124.017 43.4265 124.411 42.7272C124.815 42.0168 125.361 41.4759 126.05 41.1044C126.738 40.7219 127.509 40.5307 128.361 40.5307C129.214 40.5307 129.984 40.7219 130.672 41.1044C131.361 41.4759 131.902 42.0114 132.295 42.7108C132.7 43.4102 132.902 44.2243 132.902 45.1531C132.902 46.082 132.694 46.9016 132.279 47.6119C131.874 48.3113 131.323 48.8522 130.623 49.2347C129.924 49.6172 129.148 49.8084 128.296 49.8084ZM128.296 48.4971C128.831 48.4971 129.334 48.3714 129.804 48.1201C130.274 47.8687 130.651 47.4917 130.935 46.989C131.23 46.4863 131.377 45.8744 131.377 45.1531C131.377 44.4319 131.235 43.8199 130.951 43.3173C130.667 42.8146 130.295 42.443 129.836 42.2026C129.377 41.9513 128.88 41.8256 128.345 41.8256C127.798 41.8256 127.296 41.9513 126.837 42.2026C126.389 42.443 126.028 42.8146 125.755 43.3173C125.482 43.8199 125.345 44.4319 125.345 45.1531C125.345 45.8853 125.476 46.5027 125.738 47.0054C126.012 47.5081 126.372 47.8851 126.82 48.1365C127.268 48.3769 127.76 48.4971 128.296 48.4971ZM134.306 45.1368C134.306 44.2188 134.491 43.4156 134.863 42.7272C135.235 42.0278 135.743 41.4868 136.387 41.1044C137.043 40.7219 137.77 40.5307 138.568 40.5307C139.354 40.5307 140.037 40.7 140.616 41.0388C141.196 41.3776 141.627 41.8038 141.911 42.3174V40.6782H143.419V49.6609H141.911V47.9889C141.616 48.5135 141.174 48.9506 140.584 49.3003C140.005 49.639 139.327 49.8084 138.551 49.8084C137.753 49.8084 137.032 49.6117 136.387 49.2183C135.743 48.8249 135.235 48.273 134.863 47.5627C134.491 46.8524 134.306 46.0438 134.306 45.1368ZM141.911 45.1531C141.911 44.4756 141.775 43.8855 141.502 43.3828C141.228 42.8801 140.857 42.4977 140.387 42.2354C139.928 41.9622 139.42 41.8256 138.863 41.8256C138.305 41.8256 137.797 41.9567 137.338 42.219C136.879 42.4813 136.513 42.8638 136.24 43.3664C135.967 43.8691 135.83 44.4592 135.83 45.1368C135.83 45.8252 135.967 46.4262 136.24 46.9399C136.513 47.4425 136.879 47.8305 137.338 48.1037C137.797 48.3659 138.305 48.4971 138.863 48.4971C139.42 48.4971 139.928 48.3659 140.387 48.1037C140.857 47.8305 141.228 47.4425 141.502 46.9399C141.775 46.4262 141.911 45.8307 141.911 45.1531ZM145.383 45.1368C145.383 44.2188 145.569 43.4156 145.94 42.7272C146.312 42.0278 146.82 41.4868 147.465 41.1044C148.12 40.7219 148.853 40.5307 149.661 40.5307C150.361 40.5307 151.011 40.6946 151.612 41.0224C152.213 41.3393 152.672 41.76 152.989 42.2846V37.531H154.497V49.6609H152.989V47.9725C152.694 48.508 152.257 48.9506 151.677 49.3003C151.098 49.639 150.421 49.8084 149.645 49.8084C148.847 49.8084 148.12 49.6117 147.465 49.2183C146.82 48.8249 146.312 48.273 145.94 47.5627C145.569 46.8524 145.383 46.0438 145.383 45.1368ZM152.989 45.1531C152.989 44.4756 152.852 43.8855 152.579 43.3828C152.306 42.8801 151.934 42.4977 151.464 42.2354C151.005 41.9622 150.497 41.8256 149.94 41.8256C149.383 41.8256 148.874 41.9567 148.415 42.219C147.956 42.4813 147.59 42.8638 147.317 43.3664C147.044 43.8691 146.907 44.4592 146.907 45.1368C146.907 45.8252 147.044 46.4262 147.317 46.9399C147.59 47.4425 147.956 47.8305 148.415 48.1037C148.874 48.3659 149.383 48.4971 149.94 48.4971C150.497 48.4971 151.005 48.3659 151.464 48.1037C151.934 47.8305 152.306 47.4425 152.579 46.9399C152.852 46.4262 152.989 45.8307 152.989 45.1531ZM163.207 41.9076V47.2021C163.207 47.6392 163.3 47.9507 163.486 48.1365C163.672 48.3113 163.994 48.3987 164.453 48.3987H165.551V49.6609H164.207C163.376 49.6609 162.754 49.4697 162.338 49.0872C161.923 48.7047 161.715 48.0763 161.715 47.2021V41.9076H160.552V40.6782H161.715V38.4161H163.207V40.6782H165.551V41.9076H163.207ZM171.817 40.5143C172.495 40.5143 173.106 40.6618 173.653 40.9568C174.199 41.241 174.625 41.6726 174.931 42.2518C175.248 42.831 175.407 43.5358 175.407 44.3663V49.6609H173.932V44.5794C173.932 43.6833 173.708 43.0004 173.259 42.5305C172.811 42.0496 172.199 41.8092 171.424 41.8092C170.637 41.8092 170.008 42.0551 169.539 42.5468C169.08 43.0386 168.85 43.7544 168.85 44.6942V49.6609H167.358V37.531H168.85V41.9567C169.145 41.4978 169.549 41.1426 170.063 40.8913C170.588 40.6399 171.172 40.5143 171.817 40.5143ZM185.81 40.6782V49.6609H184.318V48.3332C184.034 48.7921 183.635 49.1527 183.122 49.415C182.619 49.6664 182.062 49.792 181.45 49.792C180.75 49.792 180.122 49.65 179.565 49.3658C179.007 49.0708 178.565 48.6337 178.237 48.0545C177.92 47.4753 177.761 46.7705 177.761 45.94V40.6782H179.237V45.7432C179.237 46.6284 179.461 47.3114 179.909 47.7922C180.357 48.2621 180.969 48.4971 181.745 48.4971C182.542 48.4971 183.171 48.2512 183.63 47.7594C184.089 47.2677 184.318 46.5519 184.318 45.6121V40.6782H185.81ZM199.131 40.5143C199.83 40.5143 200.453 40.6618 200.999 40.9568C201.546 41.241 201.977 41.6726 202.294 42.2518C202.611 42.831 202.77 43.5358 202.77 44.3663V49.6609H201.294V44.5794C201.294 43.6833 201.07 43.0004 200.622 42.5305C200.185 42.0496 199.59 41.8092 198.836 41.8092C198.06 41.8092 197.442 42.0606 196.983 42.5632C196.524 43.055 196.295 43.7708 196.295 44.7106V49.6609H194.82V44.5794C194.82 43.6833 194.596 43.0004 194.147 42.5305C193.71 42.0496 193.115 41.8092 192.361 41.8092C191.585 41.8092 190.967 42.0606 190.509 42.5632C190.05 43.055 189.82 43.7708 189.82 44.7106V49.6609H188.328V40.6782H189.82V41.9731C190.115 41.5032 190.509 41.1426 191 40.8913C191.503 40.6399 192.055 40.5143 192.656 40.5143C193.41 40.5143 194.076 40.6836 194.656 41.0224C195.235 41.3612 195.666 41.8584 195.951 42.5141C196.202 41.8802 196.617 41.3885 197.196 41.0388C197.776 40.6891 198.42 40.5143 199.131 40.5143ZM206.708 42.3501C207.014 41.8147 207.462 41.3776 208.052 41.0388C208.642 40.7 209.314 40.5307 210.068 40.5307C210.877 40.5307 211.604 40.7219 212.249 41.1044C212.893 41.4868 213.401 42.0278 213.773 42.7272C214.144 43.4156 214.33 44.2188 214.33 45.1368C214.33 46.0438 214.144 46.8524 213.773 47.5627C213.401 48.273 212.888 48.8249 212.232 49.2183C211.587 49.6117 210.866 49.8084 210.068 49.8084C209.293 49.8084 208.61 49.639 208.019 49.3003C207.44 48.9615 207.003 48.5299 206.708 48.0053V49.6609H205.216V37.531H206.708V42.3501ZM212.806 45.1368C212.806 44.4592 212.669 43.8691 212.396 43.3664C212.123 42.8638 211.751 42.4813 211.281 42.219C210.822 41.9567 210.314 41.8256 209.757 41.8256C209.211 41.8256 208.702 41.9622 208.233 42.2354C207.774 42.4977 207.402 42.8856 207.118 43.3992C206.845 43.9019 206.708 44.4865 206.708 45.1531C206.708 45.8307 206.845 46.4262 207.118 46.9399C207.402 47.4425 207.774 47.8305 208.233 48.1037C208.702 48.3659 209.211 48.4971 209.757 48.4971C210.314 48.4971 210.822 48.3659 211.281 48.1037C211.751 47.8305 212.123 47.4425 212.396 46.9399C212.669 46.4262 212.806 45.8252 212.806 45.1368ZM220.67 40.5143C221.763 40.5143 222.648 40.8476 223.326 41.5142C224.003 42.1698 224.342 43.1206 224.342 44.3663V49.6609H222.867V44.5794C222.867 43.6833 222.643 43.0004 222.195 42.5305C221.747 42.0496 221.135 41.8092 220.359 41.8092C219.572 41.8092 218.944 42.0551 218.474 42.5468C218.015 43.0386 217.785 43.7544 217.785 44.6942V49.6609H216.294V40.6782H217.785V41.9567C218.08 41.4978 218.479 41.1426 218.982 40.8913C219.496 40.6399 220.058 40.5143 220.67 40.5143ZM226.221 45.1368C226.221 44.2188 226.407 43.4156 226.779 42.7272C227.15 42.0278 227.658 41.4868 228.303 41.1044C228.959 40.7219 229.685 40.5307 230.483 40.5307C231.27 40.5307 231.953 40.7 232.532 41.0388C233.111 41.3776 233.543 41.8038 233.827 42.3174V40.6782H235.335V49.6609H233.827V47.9889C233.532 48.5135 233.09 48.9506 232.499 49.3003C231.92 49.639 231.243 49.8084 230.467 49.8084C229.669 49.8084 228.948 49.6117 228.303 49.2183C227.658 48.8249 227.15 48.273 226.779 47.5627C226.407 46.8524 226.221 46.0438 226.221 45.1368ZM233.827 45.1531C233.827 44.4756 233.691 43.8855 233.417 43.3828C233.144 42.8801 232.773 42.4977 232.303 42.2354C231.844 41.9622 231.336 41.8256 230.778 41.8256C230.221 41.8256 229.713 41.9567 229.254 42.219C228.795 42.4813 228.429 42.8638 228.156 43.3664C227.882 43.8691 227.746 44.4592 227.746 45.1368C227.746 45.8252 227.882 46.4262 228.156 46.9399C228.429 47.4425 228.795 47.8305 229.254 48.1037C229.713 48.3659 230.221 48.4971 230.778 48.4971C231.336 48.4971 231.844 48.3659 232.303 48.1037C232.773 47.8305 233.144 47.4425 233.417 46.9399C233.691 46.4262 233.827 45.8307 233.827 45.1531ZM238.626 39.2193C238.342 39.2193 238.102 39.121 237.905 38.9243C237.708 38.7276 237.61 38.4871 237.61 38.203C237.61 37.9189 237.708 37.6785 237.905 37.4818C238.102 37.2851 238.342 37.1867 238.626 37.1867C238.9 37.1867 239.129 37.2851 239.315 37.4818C239.512 37.6785 239.61 37.9189 239.61 38.203C239.61 38.4871 239.512 38.7276 239.315 38.9243C239.129 39.121 238.9 39.2193 238.626 39.2193ZM239.348 40.6782V49.6609H237.856V40.6782H239.348ZM243.382 37.531V49.6609H241.89V37.531H243.382ZM253.949 41.9076H252.064V49.6609H250.573V41.9076H249.409V40.6782H250.573V40.0389C250.573 39.0335 250.829 38.3014 251.343 37.8424C251.867 37.3725 252.703 37.1376 253.851 37.1376V38.3833C253.195 38.3833 252.731 38.5145 252.458 38.7767C252.195 39.0281 252.064 39.4488 252.064 40.0389V40.6782H253.949V41.9076ZM259.606 49.8084C258.765 49.8084 258 49.6172 257.311 49.2347C256.634 48.8522 256.098 48.3113 255.705 47.6119C255.322 46.9016 255.131 46.082 255.131 45.1531C255.131 44.2352 255.328 43.4265 255.721 42.7272C256.126 42.0168 256.672 41.4759 257.36 41.1044C258.049 40.7219 258.819 40.5307 259.672 40.5307C260.524 40.5307 261.294 40.7219 261.983 41.1044C262.671 41.4759 263.212 42.0114 263.606 42.7108C264.01 43.4102 264.212 44.2243 264.212 45.1531C264.212 46.082 264.005 46.9016 263.589 47.6119C263.185 48.3113 262.633 48.8522 261.934 49.2347C261.234 49.6172 260.458 49.8084 259.606 49.8084ZM259.606 48.4971C260.142 48.4971 260.644 48.3714 261.114 48.1201C261.584 47.8687 261.961 47.4917 262.245 46.989C262.54 46.4863 262.688 45.8744 262.688 45.1531C262.688 44.4319 262.546 43.8199 262.262 43.3173C261.977 42.8146 261.606 42.443 261.147 42.2026C260.688 41.9513 260.191 41.8256 259.655 41.8256C259.109 41.8256 258.606 41.9513 258.147 42.2026C257.699 42.443 257.339 42.8146 257.065 43.3173C256.792 43.8199 256.656 44.4319 256.656 45.1531C256.656 45.8853 256.787 46.5027 257.049 47.0054C257.322 47.5081 257.683 47.8851 258.131 48.1365C258.579 48.3769 259.071 48.4971 259.606 48.4971ZM267.665 42.1371C267.927 41.6234 268.299 41.2246 268.78 40.9405C269.271 40.6563 269.867 40.5143 270.566 40.5143V42.0551H270.173C268.501 42.0551 267.665 42.9621 267.665 44.7761V49.6609H266.173V40.6782H267.665V42.1371ZM278.478 41.9076V47.2021C278.478 47.6392 278.571 47.9507 278.757 48.1365C278.942 48.3113 279.265 48.3987 279.724 48.3987H280.822V49.6609H279.478C278.647 49.6609 278.024 49.4697 277.609 49.0872C277.194 48.7047 276.986 48.0763 276.986 47.2021V41.9076H275.822V40.6782H276.986V38.4161H278.478V40.6782H280.822V41.9076H278.478ZM287.088 40.5143C287.765 40.5143 288.377 40.6618 288.924 40.9568C289.47 41.241 289.896 41.6726 290.202 42.2518C290.519 42.831 290.678 43.5358 290.678 44.3663V49.6609H289.202V44.5794C289.202 43.6833 288.978 43.0004 288.53 42.5305C288.082 42.0496 287.47 41.8092 286.694 41.8092C285.908 41.8092 285.279 42.0551 284.809 42.5468C284.35 43.0386 284.121 43.7544 284.121 44.6942V49.6609H282.629V37.531H284.121V41.9567C284.416 41.4978 284.82 41.1426 285.334 40.8913C285.858 40.6399 286.443 40.5143 287.088 40.5143ZM301.31 44.8253C301.31 45.1094 301.294 45.4099 301.261 45.7269H294.081C294.136 46.612 294.437 47.3059 294.983 47.8086C295.54 48.3004 296.212 48.5462 296.999 48.5462C297.644 48.5462 298.179 48.3987 298.605 48.1037C299.043 47.7977 299.349 47.3934 299.523 46.8907H301.13C300.889 47.754 300.409 48.4588 299.687 49.0052C298.966 49.5407 298.07 49.8084 296.999 49.8084C296.147 49.8084 295.382 49.6172 294.704 49.2347C294.038 48.8522 293.513 48.3113 293.131 47.6119C292.748 46.9016 292.557 46.082 292.557 45.1531C292.557 44.2243 292.743 43.4102 293.114 42.7108C293.486 42.0114 294.005 41.4759 294.671 41.1044C295.349 40.7219 296.125 40.5307 296.999 40.5307C297.851 40.5307 298.605 40.7164 299.261 41.088C299.917 41.4595 300.42 41.9731 300.769 42.6288C301.13 43.2736 301.31 44.0057 301.31 44.8253ZM299.769 44.5139C299.769 43.9456 299.644 43.4593 299.392 43.055C299.141 42.6397 298.797 42.3283 298.36 42.1207C297.933 41.9021 297.458 41.7928 296.934 41.7928C296.18 41.7928 295.535 42.0332 294.999 42.5141C294.475 42.9949 294.174 43.6615 294.098 44.5139H299.769ZM307.092 45.1531C307.092 44.2243 307.278 43.4156 307.649 42.7272C308.021 42.0278 308.534 41.4868 309.19 41.1044C309.857 40.7219 310.616 40.5307 311.468 40.5307C312.572 40.5307 313.479 40.7984 314.189 41.3339C314.911 41.8693 315.386 42.6124 315.616 43.5631H314.009C313.856 43.0167 313.556 42.5851 313.108 42.2682C312.671 41.9513 312.124 41.7928 311.468 41.7928C310.616 41.7928 309.928 42.0879 309.403 42.678C308.879 43.2572 308.616 44.0822 308.616 45.1531C308.616 46.235 308.879 47.071 309.403 47.6611C309.928 48.2512 310.616 48.5462 311.468 48.5462C312.124 48.5462 312.671 48.3933 313.108 48.0873C313.545 47.7813 313.845 47.3442 314.009 46.7759H315.616C315.375 47.6939 314.894 48.4315 314.173 48.9888C313.452 49.5352 312.55 49.8084 311.468 49.8084C310.616 49.8084 309.857 49.6172 309.19 49.2347C308.534 48.8522 308.021 48.3113 307.649 47.6119C307.278 46.9125 307.092 46.0929 307.092 45.1531ZM321.524 49.8084C320.682 49.8084 319.917 49.6172 319.229 49.2347C318.551 48.8522 318.016 48.3113 317.622 47.6119C317.24 46.9016 317.049 46.082 317.049 45.1531C317.049 44.2352 317.245 43.4265 317.639 42.7272C318.043 42.0168 318.589 41.4759 319.278 41.1044C319.966 40.7219 320.737 40.5307 321.589 40.5307C322.441 40.5307 323.212 40.7219 323.9 41.1044C324.589 41.4759 325.13 42.0114 325.523 42.7108C325.927 43.4102 326.13 44.2243 326.13 45.1531C326.13 46.082 325.922 46.9016 325.507 47.6119C325.102 48.3113 324.551 48.8522 323.851 49.2347C323.152 49.6172 322.376 49.8084 321.524 49.8084ZM321.524 48.4971C322.059 48.4971 322.562 48.3714 323.032 48.1201C323.501 47.8687 323.878 47.4917 324.163 46.989C324.458 46.4863 324.605 45.8744 324.605 45.1531C324.605 44.4319 324.463 43.8199 324.179 43.3173C323.895 42.8146 323.523 42.443 323.064 42.2026C322.605 41.9513 322.108 41.8256 321.573 41.8256C321.026 41.8256 320.524 41.9513 320.065 42.2026C319.617 42.443 319.256 42.8146 318.983 43.3173C318.71 43.8199 318.573 44.4319 318.573 45.1531C318.573 45.8853 318.704 46.5027 318.966 47.0054C319.24 47.5081 319.6 47.8851 320.048 48.1365C320.496 48.3769 320.988 48.4971 321.524 48.4971ZM336.057 40.6782V49.6609H334.566V48.3332C334.281 48.7921 333.883 49.1527 333.369 49.415C332.866 49.6664 332.309 49.792 331.697 49.792C330.998 49.792 330.369 49.65 329.812 49.3658C329.255 49.0708 328.812 48.6337 328.484 48.0545C328.167 47.4753 328.009 46.7705 328.009 45.94V40.6782H329.484V45.7432C329.484 46.6284 329.708 47.3114 330.156 47.7922C330.604 48.2621 331.216 48.4971 331.992 48.4971C332.79 48.4971 333.418 48.2512 333.877 47.7594C334.336 47.2677 334.566 46.5519 334.566 45.6121V40.6782H336.057ZM340.067 42.1371C340.33 41.6234 340.701 41.2246 341.182 40.9405C341.674 40.6563 342.269 40.5143 342.969 40.5143V42.0551H342.575C340.903 42.0551 340.067 42.9621 340.067 44.7761V49.6609H338.576V40.6782H340.067V42.1371ZM347.871 49.8084C347.182 49.8084 346.565 49.6937 346.018 49.4642C345.472 49.2238 345.04 48.8959 344.724 48.4807C344.407 48.0545 344.232 47.5682 344.199 47.0218H345.74C345.784 47.4699 345.991 47.8359 346.363 48.1201C346.745 48.4042 347.242 48.5462 347.854 48.5462C348.423 48.5462 348.871 48.4206 349.199 48.1692C349.526 47.9179 349.69 47.601 349.69 47.2185C349.69 46.8251 349.515 46.5355 349.166 46.3497C348.816 46.153 348.275 45.9618 347.543 45.776C346.876 45.6012 346.33 45.4263 345.904 45.2515C345.488 45.0657 345.128 44.798 344.822 44.4483C344.527 44.0877 344.379 43.6178 344.379 43.0386C344.379 42.5796 344.516 42.1589 344.789 41.7764C345.062 41.394 345.45 41.0934 345.953 40.8749C346.456 40.6454 347.029 40.5307 347.674 40.5307C348.668 40.5307 349.472 40.782 350.084 41.2847C350.696 41.7874 351.023 42.4758 351.067 43.35H349.576C349.543 42.8801 349.351 42.5031 349.002 42.219C348.663 41.9349 348.204 41.7928 347.625 41.7928C347.089 41.7928 346.663 41.9076 346.346 42.1371C346.029 42.3665 345.871 42.6671 345.871 43.0386C345.871 43.3337 345.964 43.5795 346.15 43.7762C346.346 43.962 346.587 44.115 346.871 44.2352C347.166 44.3445 347.57 44.4702 348.084 44.6122C348.729 44.7871 349.253 44.9619 349.657 45.1368C350.062 45.3007 350.406 45.552 350.69 45.8908C350.985 46.2295 351.138 46.6721 351.149 47.2185C351.149 47.7103 351.013 48.1528 350.739 48.5462C350.466 48.9396 350.078 49.2511 349.576 49.4806C349.084 49.6991 348.516 49.8084 347.871 49.8084ZM361.451 44.8253C361.451 45.1094 361.434 45.4099 361.402 45.7269H354.222C354.277 46.612 354.577 47.3059 355.123 47.8086C355.681 48.3004 356.353 48.5462 357.14 48.5462C357.784 48.5462 358.32 48.3987 358.746 48.1037C359.183 47.7977 359.489 47.3934 359.664 46.8907H361.27C361.03 47.754 360.549 48.4588 359.828 49.0052C359.107 49.5407 358.211 49.8084 357.14 49.8084C356.287 49.8084 355.522 49.6172 354.845 49.2347C354.178 48.8522 353.654 48.3113 353.271 47.6119C352.889 46.9016 352.698 46.082 352.698 45.1531C352.698 44.2243 352.883 43.4102 353.255 42.7108C353.626 42.0114 354.145 41.4759 354.812 41.1044C355.49 40.7219 356.265 40.5307 357.14 40.5307C357.992 40.5307 358.746 40.7164 359.402 41.088C360.057 41.4595 360.56 41.9731 360.91 42.6288C361.27 43.2736 361.451 44.0057 361.451 44.8253ZM359.91 44.5139C359.91 43.9456 359.784 43.4593 359.533 43.055C359.282 42.6397 358.937 42.3283 358.5 42.1207C358.074 41.9021 357.599 41.7928 357.074 41.7928C356.32 41.7928 355.675 42.0332 355.14 42.5141C354.615 42.9949 354.315 43.6615 354.238 44.5139H359.91Z" fill="#1FB4AB"/>
<path d="M42.5516 57C41.8495 57 41.2489 56.7493 40.75 56.2479C40.2511 55.7465 40.0011 55.1449 40 54.4429V40.5571C40 39.8541 40.25 39.2524 40.75 38.7521C41.25 38.2517 41.85 38.0011 42.55 38H56.3974C57.0984 38 57.6984 38.2507 58.1974 38.7521C58.6963 39.2535 58.9463 39.8551 58.9474 40.5571V54.4429C58.9474 55.1459 58.6974 55.7476 58.1974 56.2479C57.6974 56.7482 57.0974 56.9989 56.3974 57H42.5516ZM63.3953 45.9167C63.0195 45.9167 62.7105 45.7953 62.4684 45.5525C62.2263 45.3097 62.1053 44.9999 62.1053 44.6231V39.2936C62.1053 38.9167 62.2263 38.6069 62.4684 38.3642C62.7105 38.1214 63.0195 38 63.3953 38H68.71C69.0858 38 69.3947 38.1214 69.6368 38.3642C69.8789 38.6069 70 38.9167 70 39.2936V44.6231C70 45.001 69.8789 45.3108 69.6368 45.5525C69.3947 45.7942 69.0858 45.9156 68.71 45.9167H63.3953ZM63.6842 44.3333H68.4211V39.5833H63.6842V44.3333ZM42.5516 55.4167H56.3974C56.6805 55.4167 56.9132 55.3254 57.0953 55.1427C57.2774 54.9601 57.3684 54.7269 57.3684 54.4429V40.5571C57.3684 40.2731 57.2774 40.0399 57.0953 39.8572C56.9132 39.6746 56.6805 39.5833 56.3974 39.5833H42.55C42.2668 39.5833 42.0342 39.6746 41.8521 39.8572C41.67 40.0399 41.5789 40.2737 41.5789 40.5587V54.4429C41.5789 54.7269 41.67 54.9601 41.8521 55.1427C42.0342 55.3254 42.2674 55.4167 42.5516 55.4167ZM43.4611 52.098H55.4863L51.6447 46.9522L48.6842 50.9105L46.5132 48.0209L43.4611 52.098ZM63.3953 57C63.0195 57 62.7105 56.8786 62.4684 56.6358C62.2263 56.3931 62.1053 56.0833 62.1053 55.7064V50.3769C62.1053 50.0001 62.2263 49.6903 62.4684 49.4475C62.7105 49.2047 63.0195 49.0833 63.3953 49.0833H68.71C69.0858 49.0833 69.3947 49.2047 69.6368 49.4475C69.8789 49.6903 70 50.0001 70 50.3769V55.7064C70 56.0843 69.8789 56.3941 69.6368 56.6358C69.3947 56.8776 69.0858 56.9989 68.71 57H63.3953ZM63.6842 55.4167H68.4211V50.6667H63.6842V55.4167Z" fill="#1FB4AB"/>
<path d="M36.5387 35.9405H32.8102C32.5989 35.9405 32.4219 35.8597 32.2792 35.6981C32.1365 35.5365 32.065 35.3368 32.0645 35.0989C32.064 34.861 32.1355 34.6612 32.2792 34.4997C32.4229 34.3381 32.5999 34.2573 32.8102 34.2573H36.5387V30.0494C36.5387 29.8109 36.6103 29.6112 36.7535 29.4501C36.8967 29.2891 37.0736 29.2083 37.2844 29.2078C37.4952 29.2072 37.6724 29.288 37.8161 29.4501C37.9598 29.6123 38.0311 29.812 38.0301 30.0494V34.2573H41.7587C41.97 34.2573 42.1472 34.3381 42.2904 34.4997C42.4336 34.6612 42.5049 34.861 42.5044 35.0989C42.5039 35.3368 42.4323 35.5368 42.2896 35.6989C42.1469 35.8611 41.97 35.9416 41.7587 35.9405H38.0301V40.1484C38.0301 40.3868 37.9585 40.5869 37.8154 40.7484C37.6722 40.91 37.4952 40.9905 37.2844 40.99C37.0736 40.9894 36.8967 40.9086 36.7535 40.7476C36.6103 40.5866 36.5387 40.3868 36.5387 40.1484V35.9405Z" fill="#1FB4AB"/>
</svg>
