<svg width="138" height="139" viewBox="0 0 138 139" fill="none" xmlns="http://www.w3.org/2000/svg">
<ellipse cx="69.1055" cy="69.4846" rx="68.1826" ry="68.6496" fill="#E6E9EE"/>
<path d="M100.348 93.2082C103.952 93.2082 107.409 94.64 109.957 97.1886C112.506 99.7372 113.938 103.194 113.938 106.798V110.037C113.938 126.241 94.8666 138.508 68.6383 138.508C42.4099 138.508 23.3389 126.879 23.3389 110.037V106.798C23.3389 103.194 24.7706 99.7372 27.3192 97.1886C29.8678 94.64 33.3244 93.2082 36.9287 93.2082H100.348ZM68.6383 29.7891C72.2076 29.7891 75.7419 30.4921 79.0395 31.858C82.3371 33.2239 85.3333 35.2259 87.8572 37.7498C90.3811 40.2737 92.3831 43.2699 93.749 46.5675C95.1149 49.8651 95.8179 53.3994 95.8179 56.9687C95.8179 60.538 95.1149 64.0723 93.749 67.3699C92.3831 70.6675 90.3811 73.6638 87.8572 76.1876C85.3333 78.7115 82.3371 80.7135 79.0395 82.0794C75.7419 83.4453 72.2076 84.1484 68.6383 84.1484C61.4298 84.1484 54.5165 81.2848 49.4194 76.1876C44.3222 71.0904 41.4586 64.1772 41.4586 56.9687C41.4586 49.7602 44.3222 42.847 49.4194 37.7498C54.5165 32.6526 61.4298 29.7891 68.6383 29.7891Z" fill="#B3BAC2"/>
<circle cx="115.957" cy="119.946" r="17.6735" stroke="#D4DDEB" stroke-width="0.527569"/>
<g filter="url(#filter0_d_73_5463)">
<circle cx="116.822" cy="120.299" r="10.1985" fill="white"/>
</g>
<path d="M119.183 121.575H116.822V123.935C116.822 124.195 116.61 124.408 116.35 124.408C116.09 124.408 115.878 124.195 115.878 123.935V121.575H113.517C113.257 121.575 113.045 121.362 113.045 121.102C113.045 120.843 113.257 120.63 113.517 120.63H115.878V118.27C115.878 118.01 116.09 117.797 116.35 117.797C116.61 117.797 116.822 118.01 116.822 118.27V120.63H119.183C119.443 120.63 119.655 120.843 119.655 121.102C119.655 121.362 119.443 121.575 119.183 121.575Z" fill="black"/>
<defs>
<filter id="filter0_d_73_5463" x="102.543" y="106.021" width="26.9248" height="26.9245" filterUnits="userSpaceOnUse" color-interpolation-filters="sRGB">
<feFlood flood-opacity="0" result="BackgroundImageFix"/>
<feColorMatrix in="SourceAlpha" type="matrix" values="0 0 0 0 0 0 0 0 0 0 0 0 0 0 0 0 0 0 127 0" result="hardAlpha"/>
<feOffset dx="-0.815913" dy="-0.815913"/>
<feGaussianBlur stdDeviation="1.63183"/>
<feComposite in2="hardAlpha" operator="out"/>
<feColorMatrix type="matrix" values="0 0 0 0 0 0 0 0 0 0 0 0 0 0 0 0 0 0 0.25 0"/>
<feBlend mode="normal" in2="BackgroundImageFix" result="effect1_dropShadow_73_5463"/>
<feBlend mode="normal" in="SourceGraphic" in2="effect1_dropShadow_73_5463" result="shape"/>
</filter>
</defs>
</svg>
