<svg width="190" height="170" viewBox="0 0 190 170" fill="none" xmlns="http://www.w3.org/2000/svg">
<g clip-path="url(#clip0_73_5697)">
<path d="M187.716 65.0114C187.649 65.0115 187.582 64.9907 187.527 64.9519L95.6422 0.960873C95.3626 0.767043 95.0303 0.663456 94.6901 0.664036C94.3499 0.664617 94.0179 0.769335 93.739 0.964117L2.51629 64.9512C2.44414 65.0019 2.35484 65.0217 2.26803 65.0065C2.18123 64.9913 2.10402 64.9422 2.05342 64.87C2.00281 64.7979 1.98293 64.7086 1.99817 64.6218C2.0134 64.535 2.0625 64.4577 2.13465 64.4071L93.3574 0.420006C93.748 0.147351 94.2127 0.000785959 94.689 3.15218e-06C95.1654 -0.000779655 95.6305 0.144256 96.022 0.415625L187.907 64.4065C187.965 64.4469 188.008 64.5049 188.031 64.5718C188.054 64.6388 188.055 64.7113 188.034 64.7788C188.012 64.8463 187.97 64.9052 187.913 64.9471C187.856 64.9889 187.787 65.0115 187.716 65.0114Z" fill="white"/>
<path d="M7.729 67.2797L94.7805 2.76392L182.492 71.8703L99.2657 121.208L54.0808 110.909L7.729 67.2797Z" fill="#E6E6E6"/>
<path d="M57.8952 151.682H14.8897C14.6256 151.683 14.3641 151.631 14.12 151.53C13.876 151.429 13.6542 151.281 13.4673 151.095C13.2805 150.908 13.1323 150.687 13.0311 150.443C12.93 150.199 12.8779 149.937 12.8779 149.673C12.8779 149.409 12.93 149.148 13.0311 148.904C13.1323 148.66 13.2805 148.438 13.4673 148.252C13.6542 148.065 13.876 147.917 14.12 147.816C14.3641 147.715 14.6256 147.664 14.8897 147.664H57.8952C58.1593 147.664 58.4209 147.715 58.6649 147.816C58.909 147.917 59.1308 148.065 59.3176 148.252C59.5045 148.438 59.6527 148.66 59.7538 148.904C59.855 149.148 59.907 149.409 59.907 149.673C59.907 149.937 59.855 150.199 59.7538 150.443C59.6527 150.687 59.5045 150.908 59.3176 151.095C59.1308 151.281 58.909 151.429 58.6649 151.53C58.4209 151.631 58.1593 151.683 57.8952 151.682Z" fill="#1FB4AB"/>
<path d="M30.3191 143.044H14.8897C14.6256 143.044 14.3641 142.992 14.12 142.892C13.876 142.791 13.6542 142.643 13.4673 142.456C13.2805 142.27 13.1323 142.048 13.0311 141.804C12.93 141.56 12.8779 141.299 12.8779 141.035C12.8779 140.771 12.93 140.509 13.0311 140.265C13.1323 140.021 13.2805 139.8 13.4673 139.613C13.6542 139.426 13.876 139.278 14.12 139.178C14.3641 139.077 14.6256 139.025 14.8897 139.025H30.3191C30.5832 139.025 30.8448 139.077 31.0888 139.178C31.3329 139.278 31.5547 139.426 31.7415 139.613C31.9284 139.8 32.0766 140.021 32.1777 140.265C32.2789 140.509 32.3309 140.771 32.3309 141.035C32.3309 141.299 32.2789 141.56 32.1777 141.804C32.0766 142.048 31.9284 142.27 31.7415 142.456C31.5547 142.643 31.3329 142.791 31.0888 142.892C30.8448 142.992 30.5832 143.044 30.3191 143.044Z" fill="#1FB4AB"/>
<path d="M96.0048 103.214C95.6779 103.215 95.3541 103.151 95.0516 103.027L41.3643 80.751V11.022C41.365 10.4054 41.6102 9.81426 42.0462 9.37826C42.4822 8.94227 43.0734 8.69701 43.69 8.69629H146.685C147.302 8.69701 147.893 8.94227 148.329 9.37826C148.765 9.81426 149.01 10.4054 149.011 11.022V80.7997L148.91 80.8428L96.9869 103.017C96.676 103.147 96.3421 103.214 96.0048 103.214Z" fill="white"/>
<path d="M96.0044 103.38C95.6559 103.38 95.3106 103.313 94.9879 103.181L41.1978 80.8618V11.0218C41.1985 10.3612 41.4613 9.72784 41.9284 9.26069C42.3956 8.79355 43.0289 8.53078 43.6896 8.53003H146.685C147.345 8.53078 147.979 8.79355 148.446 9.26069C148.913 9.72784 149.176 10.3612 149.176 11.0218V80.9092L97.0518 103.169C96.7202 103.309 96.3641 103.38 96.0044 103.38ZM41.8622 80.418L95.2413 102.567C95.7392 102.769 96.2968 102.765 96.7922 102.558L148.512 80.4705V11.0218C148.511 10.5374 148.319 10.0729 147.976 9.73036C147.634 9.38779 147.169 9.19509 146.685 9.19451H43.6896C43.2051 9.19509 42.7407 9.38779 42.3981 9.73036C42.0555 10.0729 41.8628 10.5374 41.8622 11.0218L41.8622 80.418Z" fill="white"/>
<path d="M187.052 64.3469H186.986L148.845 80.6334L96.6593 102.917C96.4554 103.003 96.2366 103.047 96.0154 103.049C95.7941 103.05 95.5749 103.007 95.3701 102.924L41.5303 80.5869L2.45191 64.3735L2.39221 64.3469H2.3257C1.70909 64.3476 1.11794 64.5929 0.681934 65.0289C0.24593 65.4649 0.00068417 66.056 0 66.6726V167.674C0.000685048 168.291 0.24593 168.882 0.681934 169.318C1.11794 169.754 1.70909 169.999 2.3257 170H187.052C187.669 169.999 188.26 169.754 188.696 169.318C189.132 168.882 189.377 168.291 189.378 167.674V66.6726C189.377 66.056 189.132 65.4649 188.696 65.0289C188.26 64.5929 187.669 64.3476 187.052 64.3469ZM188.714 167.674C188.713 168.115 188.538 168.537 188.227 168.849C187.915 169.16 187.493 169.335 187.052 169.335H2.3257C1.88517 169.335 1.46274 169.16 1.15124 168.849C0.839739 168.537 0.664661 168.115 0.664485 167.674V66.6726C0.665087 66.243 0.831722 65.8303 1.12955 65.5207C1.42738 65.2111 1.83335 65.0286 2.26259 65.0114L41.5303 81.3046L95.1144 103.538C95.6945 103.774 96.3444 103.771 96.9218 103.528L148.845 81.3544L187.119 65.0114C187.547 65.0299 187.952 65.2129 188.249 65.5223C188.546 65.8317 188.713 66.2437 188.714 66.6726V167.674Z" fill="white"/>
<path d="M95.4684 83.4416C93.4864 83.4453 91.557 82.8044 89.9712 81.6156L89.8728 81.5418L69.1705 65.6913C68.2117 64.9567 67.407 64.0404 66.8024 62.9949C66.1977 61.9493 65.8049 60.7948 65.6464 59.5974C65.4879 58.4 65.5668 57.1831 65.8786 56.0162C66.1904 54.8493 66.729 53.7552 67.4636 52.7964C68.1982 51.8377 69.1145 51.033 70.1601 50.4283C71.2056 49.8237 72.3601 49.4309 73.5575 49.2724C74.7549 49.1139 75.9718 49.1928 77.1387 49.5046C78.3056 49.8163 79.3997 50.3549 80.3585 51.0895L93.7679 61.3717L125.456 20.0452C126.191 19.0866 127.108 18.2823 128.154 17.678C129.2 17.0737 130.354 16.6813 131.552 16.5232C132.749 16.3651 133.966 16.4445 135.133 16.7567C136.299 17.0689 137.393 17.6079 138.352 18.3429L138.155 18.6104L138.357 18.3468C140.29 19.8328 141.555 22.025 141.875 24.4425C142.194 26.8601 141.541 29.3055 140.059 31.2423L102.786 79.8522C101.924 80.9723 100.815 81.8788 99.5462 82.5013C98.2772 83.1238 96.8819 83.4455 95.4684 83.4416Z" fill="#1FB4AB"/>
</g>
<defs>
<clipPath id="clip0_73_5697">
<rect width="189.378" height="170" fill="white"/>
</clipPath>
</defs>
</svg>
